<?xml version="1.0" encoding="UTF-8" standalone="no"?>
<!-- Created with Inkscape (http://www.inkscape.org/) -->

<svg
   id="svg2906"
   width="64"
   height="64"
   version="1.0"
   sodipodi:docname="folder-project0.svg"
   inkscape:version="1.1.1 (3bf5ae0d25, 2021-09-20)"
   xmlns:inkscape="http://www.inkscape.org/namespaces/inkscape"
   xmlns:sodipodi="http://sodipodi.sourceforge.net/DTD/sodipodi-0.dtd"
   xmlns:xlink="http://www.w3.org/1999/xlink"
   xmlns="http://www.w3.org/2000/svg"
   xmlns:svg="http://www.w3.org/2000/svg"
   xmlns:rdf="http://www.w3.org/1999/02/22-rdf-syntax-ns#"
   xmlns:cc="http://creativecommons.org/ns#"
   xmlns:dc="http://purl.org/dc/elements/1.1/">
  <metadata
     id="metadata49">
    <rdf:RDF>
      <cc:Work
         rdf:about="">
        <dc:format>image/svg+xml</dc:format>
        <dc:type
           rdf:resource="http://purl.org/dc/dcmitype/StillImage" />
      </cc:Work>
    </rdf:RDF>
  </metadata>
  <sodipodi:namedview
     pagecolor="#ffffff"
     bordercolor="#666666"
     borderopacity="1"
     objecttolerance="10"
     gridtolerance="10"
     guidetolerance="10"
     inkscape:pageopacity="0"
     inkscape:pageshadow="2"
     inkscape:window-width="1515"
     inkscape:window-height="912"
     id="namedview47"
     showgrid="false"
     inkscape:zoom="5.7219745"
     inkscape:cx="102.23744"
     inkscape:cy="22.107753"
     inkscape:window-x="99"
     inkscape:window-y="113"
     inkscape:window-maximized="0"
     inkscape:current-layer="svg2906"
     inkscape:pagecheckerboard="0" />
  <defs
     id="defs2908">
    <radialGradient
       id="radialGradient2904"
       cx="3"
       cy="5.0172"
       r="21"
       gradientTransform="matrix(-1.7093e-8 2.28 -2.8952 -1.9417e-8 16.801 2.2898)"
       gradientUnits="userSpaceOnUse">
      <stop
         id="stop3486"
         style="stop-color:#bdbdbd"
         offset="0" />
      <stop
         id="stop3488"
         style="stop-color:#d0d0d0"
         offset="1" />
    </radialGradient>
    <linearGradient
       id="linearGradient2902"
       x1="62.989"
       x2="62.989"
       y1="13.183"
       y2="16.19"
       gradientTransform="matrix(1.3408 0 0 1.33 -68.673 -1.51)"
       gradientUnits="userSpaceOnUse">
      <stop
         id="stop6406"
         style="stop-color:#f9f9f9"
         offset="0" />
      <stop
         id="stop6408"
         style="stop-color:#c9c9c9"
         offset="1" />
    </linearGradient>
    <radialGradient
       id="radialGradient2880"
       cx="605.71"
       cy="486.65"
       r="117.14"
       gradientTransform="matrix(-.03213 0 0 .037059 23.363 25.412)"
       gradientUnits="userSpaceOnUse">
      <stop
         id="stop2681"
         offset="0" />
      <stop
         id="stop2683"
         style="stop-opacity:0"
         offset="1" />
    </radialGradient>
    <radialGradient
       id="radialGradient2878"
       cx="605.71"
       cy="486.65"
       r="117.14"
       gradientTransform="matrix(.03213 0 0 .037059 24.637 25.412)"
       gradientUnits="userSpaceOnUse">
      <stop
         id="stop2675"
         offset="0" />
      <stop
         id="stop2677"
         style="stop-opacity:0"
         offset="1" />
    </radialGradient>
    <linearGradient
       id="linearGradient2876"
       x1="302.86"
       x2="302.86"
       y1="366.65"
       y2="609.51"
       gradientTransform="matrix(.08284 0 0 .037059 -5.9408 25.412)"
       gradientUnits="userSpaceOnUse">
      <stop
         id="stop2667"
         style="stop-opacity:0"
         offset="0" />
      <stop
         id="stop2669"
         offset=".5" />
      <stop
         id="stop2671"
         style="stop-opacity:0"
         offset="1" />
    </linearGradient>
    <linearGradient
       id="linearGradient2895"
       x1="82.453"
       x2="65.34"
       y1="45.114"
       y2="15.944"
       gradientTransform="matrix(1.3408 0 0 1.3265 -72.463 -1.6032)"
       gradientUnits="userSpaceOnUse">
      <stop
         id="stop3624-5"
         style="stop-color:#bb2b12"
         offset="0" />
      <stop
         id="stop3626-7"
         style="stop-color:#cd7233"
         offset="1" />
    </linearGradient>
    <radialGradient
       id="radialGradient2893"
       cx="63.969"
       cy="14.113"
       r="23.097"
       gradientTransform="matrix(2.0979 -1.262e-7 8.2824e-8 1.3475 -115.97 9.3537)"
       gradientUnits="userSpaceOnUse">
      <stop
         id="stop3618-2"
         style="stop-color:#edb763"
         offset="0" />
      <stop
         id="stop2559"
         style="stop-color:#de7f32"
         offset=".5" />
      <stop
         id="stop3620-1"
         style="stop-color:#d24413"
         offset="1" />
    </radialGradient>
    <linearGradient
       id="linearGradient2890"
       x1="22.935"
       x2="22.809"
       y1="49.629"
       y2="36.658"
       gradientTransform="matrix(1.5348 0 0 1.327 -5.0206 -.048542)"
       gradientUnits="userSpaceOnUse">
      <stop
         id="stop2661"
         style="stop-color:#0a0a0a;stop-opacity:.498"
         offset="0" />
      <stop
         id="stop2663"
         style="stop-color:#0a0a0a;stop-opacity:0"
         offset="1" />
    </linearGradient>
    <radialGradient
       id="radialGradient2887"
       cx="7.2647"
       cy="8.3021"
       r="20.98"
       gradientTransform="matrix(0 1.6066 -2.1817 0 34.686 9.2848)"
       gradientUnits="userSpaceOnUse">
      <stop
         id="stop2693"
         style="stop-color:#fff;stop-opacity:.4"
         offset="0" />
      <stop
         id="stop2695"
         style="stop-color:#fff;stop-opacity:0"
         offset="1" />
    </radialGradient>
    <linearGradient
       id="linearGradient2884"
       x1="11.566"
       x2="15.215"
       y1="22.292"
       y2="33.955"
       gradientTransform="matrix(1.3408 0 0 1.33 -.37331 -1.31)"
       gradientUnits="userSpaceOnUse">
      <stop
         id="stop2687"
         style="stop-color:#fff;stop-opacity:.27451"
         offset="0" />
      <stop
         id="stop2689"
         style="stop-color:#fff;stop-opacity:.078431"
         offset="1" />
    </linearGradient>
    <radialGradient
       id="radialGradient2436"
       cx="62.625"
       cy="4.625"
       r="10.625"
       gradientTransform="matrix(2.1647,0,0,0.75294,-111.56,36.518)"
       gradientUnits="userSpaceOnUse">
      <stop
         id="stop8840"
         offset="0" />
      <stop
         id="stop8842"
         style="stop-opacity:0"
         offset="1" />
    </radialGradient>
    <linearGradient
       id="linearGradient2515"
       x1="20.759001"
       x2="20.759001"
       y1="1"
       y2="45.016998"
       gradientUnits="userSpaceOnUse">
      <stop
         id="stop3311"
         style="stop-color:#f6f6f6"
         offset="0" />
      <stop
         id="stop3313"
         style="stop-color:#d2d2d2"
         offset="1" />
    </linearGradient>
    <linearGradient
       id="linearGradient2517"
       x1="37.201"
       x2="37.201"
       y1="1"
       y2="45"
       gradientUnits="userSpaceOnUse">
      <stop
         id="stop3399"
         style="stop-color:#aaa"
         offset="0" />
      <stop
         id="stop3401"
         style="stop-color:#8c8c8c"
         offset="1" />
    </linearGradient>
    <linearGradient
       id="linearGradient2512"
       x1="86.133003"
       x2="84.639"
       y1="105.1"
       y2="20.895"
       gradientTransform="matrix(0.32448,0,0,0.32448,3.2333,2.5577)"
       gradientUnits="userSpaceOnUse">
      <stop
         id="stop5130"
         style="stop-color:#e5e5e5"
         offset="0" />
      <stop
         id="stop5132"
         style="stop-color:#ababab"
         offset="1" />
    </linearGradient>
    <radialGradient
       id="radialGradient2876"
       cx="32"
       cy="41.5"
       r="21"
       gradientTransform="matrix(1,0,0,0.35714,0,26.679)"
       gradientUnits="userSpaceOnUse"
       xlink:href="#linearGradient5060" />
    <linearGradient
       id="linearGradient5060">
      <stop
         id="stop5062"
         offset="0" />
      <stop
         id="stop5064"
         style="stop-opacity:0"
         offset="1" />
    </linearGradient>
    <radialGradient
       id="radialGradient2878-6"
       cx="25"
       cy="28.66"
       r="16"
       gradientTransform="matrix(1.3125,0,0,0.37327,-7.8125,20.302)"
       gradientUnits="userSpaceOnUse"
       xlink:href="#linearGradient6954" />
    <linearGradient
       id="linearGradient6954">
      <stop
         id="stop6960"
         style="stop-color:#f5f5f5"
         offset="0" />
      <stop
         id="stop6962"
         style="stop-color:#d2d2d2"
         offset="1" />
    </linearGradient>
    <linearGradient
       id="linearGradient2880"
       x1="30"
       x2="30"
       y1="25.084999"
       y2="45"
       gradientUnits="userSpaceOnUse"
       xlink:href="#linearGradient3785" />
    <linearGradient
       id="linearGradient3785">
      <stop
         id="stop3787"
         style="stop-color:#bdbdbd"
         offset="0" />
      <stop
         id="stop3789"
         style="stop-color:#8c8c8c"
         offset="1" />
    </linearGradient>
    <linearGradient
       id="linearGradient2882"
       x1="24.787001"
       x2="24.875"
       y1="53.868999"
       y2="83.5"
       gradientUnits="userSpaceOnUse"
       xlink:href="#linearGradient3341" />
    <linearGradient
       id="linearGradient3341">
      <stop
         id="stop3343"
         style="stop-color:#fff"
         offset="0" />
      <stop
         id="stop3345"
         style="stop-color:#fff;stop-opacity:0"
         offset="1" />
    </linearGradient>
    <radialGradient
       id="radialGradient2884"
       cx="26.375999"
       cy="12.313"
       r="8"
       gradientTransform="matrix(1.6402,-0.13258,0.12811,1.5849,-18.396,-5.2274)"
       gradientUnits="userSpaceOnUse"
       xlink:href="#linearGradient6954" />
    <linearGradient
       id="linearGradient2887"
       x1="30"
       x2="30"
       y1="5"
       y2="44.679001"
       gradientUnits="userSpaceOnUse"
       xlink:href="#linearGradient3785" />
    <linearGradient
       id="linearGradient2889"
       x1="22"
       x2="17"
       y1="39"
       y2="37.438"
       gradientUnits="userSpaceOnUse"
       xlink:href="#linearGradient5060" />
    <linearGradient
       id="linearGradient2891"
       x1="38"
       x2="43"
       y1="39"
       y2="38.599998"
       gradientUnits="userSpaceOnUse"
       xlink:href="#linearGradient5060" />
    <radialGradient
       id="radialGradient2893-7"
       cx="30"
       cy="33.188"
       r="4.6875"
       gradientTransform="matrix(1.528,-7.0647e-7,2.1309e-7,0.46087,-15.839,14.705)"
       gradientUnits="userSpaceOnUse"
       xlink:href="#linearGradient5060" />
    <linearGradient
       id="linearGradient2895-5"
       x1="30"
       x2="30"
       y1="3.0411"
       y2="27.957001"
       gradientUnits="userSpaceOnUse"
       xlink:href="#linearGradient3341" />
    <radialGradient
       id="radialGradient2876-3"
       cx="32"
       cy="41.5"
       r="21"
       gradientTransform="matrix(1,0,0,0.35714,0,26.679)"
       gradientUnits="userSpaceOnUse"
       xlink:href="#linearGradient5060" />
    <radialGradient
       id="radialGradient2878-6-5"
       cx="25"
       cy="28.66"
       r="16"
       gradientTransform="matrix(1.3125,0,0,0.37327,-7.8125,20.302)"
       gradientUnits="userSpaceOnUse"
       xlink:href="#linearGradient6954" />
    <radialGradient
       id="radialGradient2884-2"
       cx="26.375999"
       cy="12.313"
       r="8"
       gradientTransform="matrix(1.6402,-0.13258,0.12811,1.5849,-18.396,-5.2274)"
       gradientUnits="userSpaceOnUse"
       xlink:href="#linearGradient6954" />
    <radialGradient
       id="radialGradient2893-7-7"
       cx="30"
       cy="33.188"
       r="4.6875"
       gradientTransform="matrix(1.528,-7.0647e-7,2.1309e-7,0.46087,-15.839,14.705)"
       gradientUnits="userSpaceOnUse"
       xlink:href="#linearGradient5060" />
    <linearGradient
       id="linearGradient9821"
       x1="40.125"
       x2="44.562"
       y1="12.625"
       y2="17.125"
       gradientUnits="userSpaceOnUse">
      <stop
         id="stop2266"
         style="stop-color:#d7e866"
         offset="0" />
      <stop
         id="stop2268"
         style="stop-color:#8cab2a"
         offset="1" />
    </linearGradient>
    <linearGradient
       id="linearGradient9833"
       x1="39.89"
       x2="43.968"
       y1="13"
       y2="17.688"
       gradientTransform="matrix(0.94808,0,0,0.94267,2.2406,0.78867)"
       gradientUnits="userSpaceOnUse">
      <stop
         id="stop9829"
         style="stop-opacity:0"
         offset="0" />
      <stop
         id="stop9835"
         style="stop-opacity:.26496"
         offset=".58448" />
      <stop
         id="stop9831"
         style="stop-opacity:0"
         offset="1" />
    </linearGradient>
    <linearGradient
       id="linearGradient9914"
       x1="10.866"
       x2="22.517"
       y1="47.686"
       y2="16.166"
       gradientTransform="matrix(0.99965,0,0,1.0201,0.0078088,-0.99822)"
       gradientUnits="userSpaceOnUse">
      <stop
         id="stop3636"
         style="stop-color:#f0f0f0"
         offset="0" />
      <stop
         id="stop3638"
         style="stop-color:#c8c8c8"
         offset=".51945" />
      <stop
         id="stop3640"
         style="stop-color:#a0a0a0"
         offset=".68466" />
      <stop
         id="stop3642"
         style="stop-color:#a0a0a0"
         offset=".76485" />
      <stop
         id="stop3644"
         style="stop-color:#c8c8c8"
         offset=".91405" />
      <stop
         id="stop3646"
         style="stop-color:#dcdcdc"
         offset="1" />
    </linearGradient>
    <linearGradient
       id="linearGradient9940"
       x1="13.34"
       x2="23.386"
       y1="48.039"
       y2="18.074"
       gradientTransform="matrix(0.99965,0,0,1.0201,0.0078088,-0.99822)"
       gradientUnits="userSpaceOnUse">
      <stop
         id="stop3650"
         style="stop-color:#a0a0a0"
         offset="0" />
      <stop
         id="stop3652"
         style="stop-color:#828282"
         offset=".51945" />
      <stop
         id="stop3654"
         style="stop-color:#5a5a5a"
         offset=".68466" />
      <stop
         id="stop3656"
         style="stop-color:#5a5a5a"
         offset=".76485" />
      <stop
         id="stop3658"
         style="stop-color:#828282"
         offset=".91405" />
      <stop
         id="stop3660"
         style="stop-color:#6e6e6e"
         offset="1" />
    </linearGradient>
    <radialGradient
       id="radialGradient6680"
       cx="15.459"
       cy="51.218"
       r="10.625"
       gradientTransform="matrix(1.5824,-0.10706,0.017075,0.25236,-13.148,37.917)"
       gradientUnits="userSpaceOnUse">
      <stop
         id="stop6674"
         offset="0" />
      <stop
         id="stop6676"
         style="stop-opacity:0"
         offset="1" />
    </radialGradient>
    <filter
       id="filter6722"
       x="-0.065393257"
       y="-0.37307692"
       width="1.1307865"
       height="1.7461538"
       color-interpolation-filters="sRGB">
      <feGaussianBlur
         id="feGaussianBlur6724"
         collect="always"
         stdDeviation="0.60625" />
    </filter>
    <radialGradient
       id="radialGradient6346"
       cx=".83577"
       cy="32.749"
       r="13.125"
       gradientTransform="matrix(0.42975,-0.08755,0.12439,0.61061,18.441,10.041)"
       gradientUnits="userSpaceOnUse"
       xlink:href="#linearGradient3341" />
    <radialGradient
       id="radialGradient6348"
       cx="36.258"
       cy="18.125"
       r="7.5535"
       gradientTransform="matrix(0.69504,-0.17712,0.12966,0.50883,8.7072,15.018)"
       gradientUnits="userSpaceOnUse"
       xlink:href="#linearGradient3341" />
  </defs>
  <g
     id="layer1">
    <path
       id="path2856"
       d="m5.2811 9.6095c-0.9255 0.010201-1.6448 0.65505-1.6448 1.53 0 7.3342 0.043023 12.954 0 19.618 1.9246 0 56.896-4.9352 56.896-7.0532v-8.5805c0-0.87494-0.64331-1.54-1.5688-1.5298h-27.158c-2.7452 0-4.6912-3.999-6.7039-3.999l-19.82 0.014506z"
       style="fill:url(#linearGradient2902);stroke-linecap:round;stroke-linejoin:round;stroke:url(#radialGradient2904)" />
    <g
       id="g2858"
       transform="matrix(1.2849 0 0 .88667 .96746 18.44)"
       style="opacity:.4">
      <rect
         id="rect2860"
         x="4"
         y="39"
         width="40.7"
         height="9"
         style="fill:url(#linearGradient2876)" />
      <path
         id="path2862"
         d="m44.7 39v8.9995c1.6546 0.01694 4-2.0163 4-4.5003 0-2.484-1.8464-4.4992-4-4.4992z"
         style="fill:url(#radialGradient2878)" />
      <path
         id="path2864"
         d="m4 39v8.9995c-1.6546 0.016941-4-2.0163-4-4.5003 0-2.484 1.8464-4.4992 4-4.4992z"
         style="fill:url(#radialGradient2880)" />
    </g>
    <path
       id="path2866"
       d="m2.5259 20.468c-1.4383 0.16407-0.86993 1.8599-0.9846 2.8134 0.52631 11.235 1.2576 22.244 1.7807 33.479 0.45833 1.281 2.1378 0.62498 3.202 0.78758h53.07c1.4606-0.14147 0.85337-1.8672 1.0588-2.8549 0.52632-11.235 1.258-22.244 1.7811-33.479-0.33677-1.2658-2.2376-0.56244-3.2346-0.74613h-56.673v0z"
       style="fill:url(#radialGradient2893);stroke-linecap:round;stroke-linejoin:round;stroke-width:.99868;stroke:url(#linearGradient2895)" />
    <path
       id="path2868"
       d="m2.3863 19.857 58.855 5.36e-4c0.85026 0 1.4013 0.59133 1.4013 1.3265l-1.6682 35.829c0 0.73516-0.68451 1.327-1.5348 1.327h-55.252c-0.85026 0-1.5348-0.59185-1.5348-1.327l-1.6682-35.829c0-0.73517 0.55105-1.327 1.4013-1.327z"
       style="fill:url(#linearGradient2890);opacity:.4" />
    <path
       id="path2870"
       d="m61.673 21.565h-58.994c0.321 10.435 1.0335 21.751 1.5503 32.627"
       style="fill:none;stroke-linecap:round;stroke-linejoin:round;stroke:url(#radialGradient2887)" />
    <path
       id="path2872"
       d="m60.967 19.97c-19.508 0.097556-39.023-0.028129-58.533 0-2.4225 0.54679-1.1187 3.2806-1.3038 5.0161 0.29769 5.5373 0.43316 11.099 0.8319 16.621 20.112-3.1425 40.125-6.1276 59.885-9.376 1.0471-3.4401 1.0557-7.5419 0.88137-11.211-0.30722-0.67107-1.0552-1.0651-1.7612-1.0501z"
       style="fill:url(#linearGradient2884)" />
    <rect
       id="rect2874"
       x="6"
       y="12"
       width="19"
       height="2.1212"
       rx="1.3408"
       ry=".99632"
       style="display:block;fill:#eda374" />
  </g>
  <g
     id="g6744"
     transform="matrix(0.94084189,0,0,0.94084189,10.51997,15.355561)">
    <path
       id="path6670"
       d="M 8.75,50 H 31 L 18.318,46.1 Z"
       style="opacity:0.3;fill:url(#radialGradient6680);fill-rule:evenodd;filter:url(#filter6722)" />
    <g
       id="g5527">
      <path
         id="path5748"
         d="m 44.835,9.2362 -10.653,8.9416 c -0.45906,0.42734 -0.7117,0.99712 -0.7117,1.605 0,0.60784 0.25263,1.178 0.7117,1.605 l 0.78364,0.72934 c 0.95083,0.88505 3.4019,0.1997 4.3527,-0.68535 l 9.3694,-8.5506 c 0.95083,-0.88505 1.1863,-2.2198 0.23505,-3.1048 L 48.13915,9.0467 c -0.95043,-0.88435 -2.3534,-0.69512 -3.3042,0.18958 z"
         style="fill:url(#linearGradient9821);stroke:#366407;stroke-width:0.94095;enable-background:new" />
      <path
         id="path9823"
         d="m 44.757,9.7841 -9.9947,8.3953 c -0.43451,0.40123 -0.54104,0.80361 -0.54104,1.3743 0,0.5707 0.01815,0.97342 0.45265,1.3743 l 0.74172,0.68477 c 0.89997,0.83097 2.5128,0.40847 3.4128,-0.4225 l 9.3543,-8.3817 c 0.89997,-0.83097 1.388,-1.819 0.48764,-2.65 L 47.88445,9.42927 C 46.98487,8.59895 45.65695,8.9534 44.75695,9.78404 Z"
         style="fill:url(#linearGradient9833);enable-background:new" />
      <path
         id="path9837"
         d="M 34.869,18.844 45.741,9.74 c 1.0292,-0.49316 1.0777,-0.28577 1.3258,-0.22097 0.4714,0.23731 0.94281,0.61876 1.4142,1.3258 0.14959,0.36828 0.10058,0.73657 -0.22097,1.1049 l -9.6343,8.8388 c -0.81023,0.43468 -1.6205,0.84102 -2.4307,0.92808 -0.55263,-0.19109 -1.0515,-0.48981 -1.37,-1.149 -0.13895,-0.47207 -0.78331,-0.6072 0.04419,-1.7236 z"
         style="opacity:0.6;fill:none;stroke:url(#radialGradient6348);stroke-width:1px" />
      <path
         id="path5784"
         d="m 35.121,19.499 c -0.54853,-0.0041 -1.1023,0.32775 -1.562,0.79694 -0.98134,1.0009 -0.7185,2.1709 -0.7185,5.6742 0,1.0265 -2.6258,2.1358 -3.2801,2.1358 -0.03242,-3.9e-4 -0.06106,0 -0.09372,0 -2.0929,0 -8.903,0.29963 -10.996,3.2196 -2.0932,2.92 -9.9341,16.191 -9.9341,18.138 3.1397,10e-7 25.946,-11.567 27.116,-12.655 1.4151,-1.3163 0.72709,-3.9702 -0.18744,-5.738 0.0062,-0.0082 -0.0039,-0.02205 0,-0.03188 0.02544,-0.0639 0.01875,-0.14873 -0.06248,-0.2869 -0.49015,-0.83376 -0.74974,-1.669 -0.74974,-2.8371 0,-2.9485 0.3042,-4.4549 1.0309,-5.196 0.65434,-0.66764 1.2326,-1.9296 0.40611,-2.7733 -0.30995,-0.31638 -0.6393,-0.44383 -0.96841,-0.44629 z"
         style="fill:url(#linearGradient9914);stroke:url(#linearGradient9940);stroke-width:0.998;stroke-linejoin:round" />
      <path
         id="path9956"
         d="m 34.669,20.65 c -1.4694,0.66028 -0.76869,4.2653 -0.85733,5.5336 0.16147,1.2306 -3.2712,3.0138 -3.9642,2.8755 -0.03023,-3.66e-4 -8.606,0.0619 -10.557,2.797 -3.3745,5.1425 -6.2673,9.9988 -9.0736,16.052 8.0781,-2.984 16.398,-7.1313 24.529,-11.666 1.7567,-0.94128 0.07353,-4.192 -0.26423,-5.2044 -0.45695,-0.78096 -0.7927,-1.5946 -0.7927,-2.6887 0,-2.7618 0.34609,-5.2666 1.0236,-5.9608 1.4463,-1.163 0.65054,-2.3478 -0.04286,-1.738 z"
         style="opacity:0.6;fill:none;stroke:url(#radialGradient6346);stroke-width:0.933;enable-background:new" />
    </g>
  </g>
</svg>
