<?xml version="1.0" encoding="UTF-8" standalone="no"?>
<!-- Created with Inkscape (http://www.inkscape.org/) -->

<svg
   id="svg2906"
   width="104"
   height="106.03125"
   version="1.0"
   sodipodi:docname="folder-git-blue.svg"
   inkscape:version="1.3.2 (091e20ef0f, 2023-11-25)"
   xml:space="preserve"
   xmlns:inkscape="http://www.inkscape.org/namespaces/inkscape"
   xmlns:sodipodi="http://sodipodi.sourceforge.net/DTD/sodipodi-0.dtd"
   xmlns:xlink="http://www.w3.org/1999/xlink"
   xmlns="http://www.w3.org/2000/svg"
   xmlns:svg="http://www.w3.org/2000/svg"
   xmlns:rdf="http://www.w3.org/1999/02/22-rdf-syntax-ns#"
   xmlns:cc="http://creativecommons.org/ns#"
   xmlns:dc="http://purl.org/dc/elements/1.1/"><metadata
     id="metadata49"><rdf:RDF><cc:Work
         rdf:about=""><dc:format>image/svg+xml</dc:format><dc:type
           rdf:resource="http://purl.org/dc/dcmitype/StillImage" /></cc:Work></rdf:RDF></metadata><sodipodi:namedview
     pagecolor="#ffffff"
     bordercolor="#666666"
     borderopacity="1"
     objecttolerance="10"
     gridtolerance="10"
     guidetolerance="10"
     inkscape:pageopacity="0"
     inkscape:pageshadow="2"
     inkscape:window-width="1504"
     inkscape:window-height="991"
     id="namedview47"
     showgrid="false"
     inkscape:zoom="5.7219745"
     inkscape:cx="33.991763"
     inkscape:cy="53.565426"
     inkscape:window-x="26"
     inkscape:window-y="23"
     inkscape:window-maximized="0"
     inkscape:current-layer="svg2906"
     inkscape:pagecheckerboard="0"
     inkscape:showpageshadow="2"
     inkscape:deskcolor="#d1d1d1" /><defs
     id="defs2908"><radialGradient
       id="radialGradient2904"
       cx="3"
       cy="5.0172"
       r="21"
       gradientTransform="matrix(-1.7093e-8,2.28,-2.8952,-1.9417e-8,16.801,2.2898)"
       gradientUnits="userSpaceOnUse"><stop
         id="stop3486"
         style="stop-color:#bdbdbd"
         offset="0" /><stop
         id="stop3488"
         style="stop-color:#d0d0d0"
         offset="1" /></radialGradient><linearGradient
       id="linearGradient2902"
       x1="62.988998"
       x2="62.988998"
       y1="13.183"
       y2="16.190001"
       gradientTransform="matrix(1.3408,0,0,1.33,-68.673,-1.51)"
       gradientUnits="userSpaceOnUse"><stop
         id="stop6406"
         style="stop-color:#f9f9f9"
         offset="0" /><stop
         id="stop6408"
         style="stop-color:#c9c9c9"
         offset="1" /></linearGradient><radialGradient
       id="radialGradient2880"
       cx="605.71002"
       cy="486.64999"
       r="117.14"
       gradientTransform="matrix(-0.03213,0,0,0.037059,23.363,25.412)"
       gradientUnits="userSpaceOnUse"><stop
         id="stop2681"
         offset="0" /><stop
         id="stop2683"
         style="stop-opacity:0"
         offset="1" /></radialGradient><radialGradient
       id="radialGradient2878"
       cx="605.71002"
       cy="486.64999"
       r="117.14"
       gradientTransform="matrix(0.03213,0,0,0.037059,24.637,25.412)"
       gradientUnits="userSpaceOnUse"><stop
         id="stop2675"
         offset="0" /><stop
         id="stop2677"
         style="stop-opacity:0"
         offset="1" /></radialGradient><linearGradient
       id="linearGradient2876"
       x1="302.85999"
       x2="302.85999"
       y1="366.64999"
       y2="609.51001"
       gradientTransform="matrix(0.08284,0,0,0.037059,-5.9408,25.412)"
       gradientUnits="userSpaceOnUse"><stop
         id="stop2667"
         style="stop-opacity:0"
         offset="0" /><stop
         id="stop2669"
         offset=".5" /><stop
         id="stop2671"
         style="stop-opacity:0"
         offset="1" /></linearGradient><linearGradient
       id="linearGradient2895"
       x1="82.453003"
       x2="65.339996"
       y1="45.113998"
       y2="15.944"
       gradientTransform="matrix(1.3408,0,0,1.3265,-72.463,-1.6032)"
       gradientUnits="userSpaceOnUse"><stop
         id="stop3624-5"
         style="stop-color:#bb2b12"
         offset="0" /><stop
         id="stop3626-7"
         style="stop-color:#cd7233"
         offset="1" /></linearGradient><radialGradient
       id="radialGradient2893"
       cx="63.969002"
       cy="14.113"
       r="23.097"
       gradientTransform="matrix(2.0979,-1.262e-7,8.2824e-8,1.3475,-115.97,9.3537)"
       gradientUnits="userSpaceOnUse"><stop
         id="stop3618-2"
         style="stop-color:#edb763"
         offset="0" /><stop
         id="stop2559"
         style="stop-color:#de7f32"
         offset=".5" /><stop
         id="stop3620-1"
         style="stop-color:#d24413"
         offset="1" /></radialGradient><linearGradient
       id="linearGradient2890"
       x1="22.934999"
       x2="22.809"
       y1="49.629002"
       y2="36.658001"
       gradientTransform="matrix(1.5348,0,0,1.327,-5.0206,-0.048542)"
       gradientUnits="userSpaceOnUse"><stop
         id="stop2661"
         style="stop-color:#0a0a0a;stop-opacity:.498"
         offset="0" /><stop
         id="stop2663"
         style="stop-color:#0a0a0a;stop-opacity:0"
         offset="1" /></linearGradient><radialGradient
       id="radialGradient2887"
       cx="7.2646999"
       cy="8.3021002"
       r="20.98"
       gradientTransform="matrix(0,1.6066,-2.1817,0,34.686,9.2848)"
       gradientUnits="userSpaceOnUse"><stop
         id="stop2693"
         style="stop-color:#fff;stop-opacity:.4"
         offset="0" /><stop
         id="stop2695"
         style="stop-color:#fff;stop-opacity:0"
         offset="1" /></radialGradient><linearGradient
       id="linearGradient2884"
       x1="11.566"
       x2="15.215"
       y1="22.292"
       y2="33.955002"
       gradientTransform="matrix(1.3408,0,0,1.33,-0.37331,-1.31)"
       gradientUnits="userSpaceOnUse"><stop
         id="stop2687"
         style="stop-color:#fff;stop-opacity:.27451"
         offset="0" /><stop
         id="stop2689"
         style="stop-color:#fff;stop-opacity:.078431"
         offset="1" /></linearGradient><radialGradient
       id="radialGradient2436"
       cx="62.625"
       cy="4.625"
       r="10.625"
       gradientTransform="matrix(2.1647,0,0,0.75294,-111.56,36.518)"
       gradientUnits="userSpaceOnUse"><stop
         id="stop8840"
         offset="0" /><stop
         id="stop8842"
         style="stop-opacity:0"
         offset="1" /></radialGradient><linearGradient
       id="linearGradient2515"
       x1="20.759001"
       x2="20.759001"
       y1="1"
       y2="45.016998"
       gradientUnits="userSpaceOnUse"><stop
         id="stop3311"
         style="stop-color:#f6f6f6"
         offset="0" /><stop
         id="stop3313"
         style="stop-color:#d2d2d2"
         offset="1" /></linearGradient><linearGradient
       id="linearGradient2517"
       x1="37.201"
       x2="37.201"
       y1="1"
       y2="45"
       gradientUnits="userSpaceOnUse"><stop
         id="stop3399"
         style="stop-color:#aaa"
         offset="0" /><stop
         id="stop3401"
         style="stop-color:#8c8c8c"
         offset="1" /></linearGradient><linearGradient
       id="linearGradient2512"
       x1="86.133003"
       x2="84.639"
       y1="105.1"
       y2="20.895"
       gradientTransform="matrix(0.32448,0,0,0.32448,3.2333,2.5577)"
       gradientUnits="userSpaceOnUse"><stop
         id="stop5130"
         style="stop-color:#e5e5e5"
         offset="0" /><stop
         id="stop5132"
         style="stop-color:#ababab"
         offset="1" /></linearGradient><radialGradient
       id="radialGradient2876"
       cx="32"
       cy="41.5"
       r="21"
       gradientTransform="matrix(1,0,0,0.35714,0,26.679)"
       gradientUnits="userSpaceOnUse"
       xlink:href="#linearGradient5060" /><linearGradient
       id="linearGradient5060"><stop
         id="stop5062"
         offset="0" /><stop
         id="stop5064"
         style="stop-opacity:0"
         offset="1" /></linearGradient><radialGradient
       id="radialGradient2878-6"
       cx="25"
       cy="28.66"
       r="16"
       gradientTransform="matrix(1.3125,0,0,0.37327,-7.8125,20.302)"
       gradientUnits="userSpaceOnUse"
       xlink:href="#linearGradient6954" /><linearGradient
       id="linearGradient6954"><stop
         id="stop6960"
         style="stop-color:#f5f5f5"
         offset="0" /><stop
         id="stop6962"
         style="stop-color:#d2d2d2"
         offset="1" /></linearGradient><linearGradient
       id="linearGradient2880"
       x1="30"
       x2="30"
       y1="25.084999"
       y2="45"
       gradientUnits="userSpaceOnUse"
       xlink:href="#linearGradient3785" /><linearGradient
       id="linearGradient3785"><stop
         id="stop3787"
         style="stop-color:#bdbdbd"
         offset="0" /><stop
         id="stop3789"
         style="stop-color:#8c8c8c"
         offset="1" /></linearGradient><linearGradient
       id="linearGradient2882"
       x1="24.787001"
       x2="24.875"
       y1="53.868999"
       y2="83.5"
       gradientUnits="userSpaceOnUse"
       xlink:href="#linearGradient3341" /><linearGradient
       id="linearGradient3341"><stop
         id="stop3343"
         style="stop-color:#fff"
         offset="0" /><stop
         id="stop3345"
         style="stop-color:#fff;stop-opacity:0"
         offset="1" /></linearGradient><radialGradient
       id="radialGradient2884"
       cx="26.375999"
       cy="12.313"
       r="8"
       gradientTransform="matrix(1.6402,-0.13258,0.12811,1.5849,-18.396,-5.2274)"
       gradientUnits="userSpaceOnUse"
       xlink:href="#linearGradient6954" /><linearGradient
       id="linearGradient2887"
       x1="30"
       x2="30"
       y1="5"
       y2="44.679001"
       gradientUnits="userSpaceOnUse"
       xlink:href="#linearGradient3785" /><linearGradient
       id="linearGradient2889"
       x1="22"
       x2="17"
       y1="39"
       y2="37.438"
       gradientUnits="userSpaceOnUse"
       xlink:href="#linearGradient5060" /><linearGradient
       id="linearGradient2891"
       x1="38"
       x2="43"
       y1="39"
       y2="38.599998"
       gradientUnits="userSpaceOnUse"
       xlink:href="#linearGradient5060" /><radialGradient
       id="radialGradient2893-7"
       cx="30"
       cy="33.188"
       r="4.6875"
       gradientTransform="matrix(1.528,-7.0647e-7,2.1309e-7,0.46087,-15.839,14.705)"
       gradientUnits="userSpaceOnUse"
       xlink:href="#linearGradient5060" /><linearGradient
       id="linearGradient2895-5"
       x1="30"
       x2="30"
       y1="3.0411"
       y2="27.957001"
       gradientUnits="userSpaceOnUse"
       xlink:href="#linearGradient3341" /><radialGradient
       id="radialGradient2876-3"
       cx="32"
       cy="41.5"
       r="21"
       gradientTransform="matrix(1,0,0,0.35714,0,26.679)"
       gradientUnits="userSpaceOnUse"
       xlink:href="#linearGradient5060" /><radialGradient
       id="radialGradient2878-6-5"
       cx="25"
       cy="28.66"
       r="16"
       gradientTransform="matrix(1.3125,0,0,0.37327,-7.8125,20.302)"
       gradientUnits="userSpaceOnUse"
       xlink:href="#linearGradient6954" /><radialGradient
       id="radialGradient2884-2"
       cx="26.375999"
       cy="12.313"
       r="8"
       gradientTransform="matrix(1.6402,-0.13258,0.12811,1.5849,-18.396,-5.2274)"
       gradientUnits="userSpaceOnUse"
       xlink:href="#linearGradient6954" /><radialGradient
       id="radialGradient2893-7-7"
       cx="30"
       cy="33.188"
       r="4.6875"
       gradientTransform="matrix(1.528,-7.0647e-7,2.1309e-7,0.46087,-15.839,14.705)"
       gradientUnits="userSpaceOnUse"
       xlink:href="#linearGradient5060" /></defs><g
     id="g1"
     transform="translate(-12,-12)"><path
       d="M 21.976562,12 C 16.449219,12 12,16.460938 12,22 v 86.03125 c 0,5.54297 4.449219,10 9.976562,10 h 84.042968 c 5.53125,0 9.98047,-4.45703 9.98047,-10 V 35.945312 c 0,-6.628906 -5.35937,-12 -11.97266,-12 H 58 c -2.453125,0 -4.695312,-1.386718 -5.796875,-3.582031 L 50.699219,17.371094 C 49.042969,14.078125 45.679688,12 42,12 Z m 0,0"
       fill="#438de6"
       id="path6" /><path
       d="M 65.976562,36 C 63.230469,36 60.75,37.101562 58.949219,38.890625 56.675781,41.144531 53.566406,44 50.316406,44 H 21.976562 C 16.449219,44 12,48.460938 12,54 v 54.03125 c 0,5.54297 4.449219,10 9.976562,10 h 84.042968 c 5.53125,0 9.98047,-4.45703 9.98047,-10 V 46 c 0,-5.539062 -4.44922,-10 -9.98047,-10 z m 0,0"
       fill="url(#a)"
       id="path7" /><path
       d="M 65.976562,32 C 63.230469,32 60.75,33.101562 58.949219,34.890625 56.675781,37.144531 53.566406,40 50.316406,40 H 21.976562 C 16.449219,40 12,44.460938 12,50 v 55.97656 c 0,5.53907 4.449219,10 9.976562,10 h 84.042968 c 5.53125,0 9.98047,-4.46093 9.98047,-10 V 42 c 0,-5.539062 -4.44922,-10 -9.98047,-10 z m 0,0"
       fill="#a4caee"
       id="path8" /></g><path
     style="fill:#438de6;fill-opacity:1;stroke-width:0.512644"
     inkscape:connector-curvature="0"
     id="path10"
     d="M 80.100983,61.878363 54.59958,36.380088 c -1.467283,-1.468618 -3.849013,-1.468618 -5.318155,0 l -5.295088,5.295596 6.71664,6.716646 c 1.561474,-0.5272 3.351204,-0.173685 4.595281,1.070599 1.250553,1.252086 1.601499,3.057096 1.061076,4.623785 l 6.473653,6.473644 c 1.566166,-0.53971 3.373174,-0.190976 4.62377,1.061788 1.74842,1.747902 1.74842,4.580204 0,6.328569 -1.748677,1.748936 -4.580972,1.748936 -6.33063,0 -1.314662,-1.315695 -1.639818,-3.247335 -0.973968,-4.867131 l -6.037374,-6.037382 -5.09e-4,15.887295 c 0.42626,0.210997 0.82853,0.492656 1.18374,0.846324 1.747899,1.747701 1.747899,4.579487 0,6.330109 -1.74842,1.747654 -4.582007,1.747654 -6.328568,0 -1.74817,-1.750464 -1.74817,-4.582252 0,-6.330109 0.432034,-0.431263 0.931921,-0.757682 1.465328,-0.976479 V 56.768393 c -0.533661,-0.217876 -1.032969,-0.54186 -1.465639,-0.976583 -1.324161,-1.323132 -1.643076,-3.26656 -0.963971,-4.892605 l -6.621301,-6.622319 -17.48419,17.48367 c -1.469086,1.469752 -1.469086,3.851483 0,5.320207 L 49.399533,92.57909 c 1.468117,1.46862 3.849033,1.46862 5.319188,0 L 80.100663,67.201232 c 1.46863,-1.469332 1.46863,-3.851786 0,-5.320714" /></svg>
