<?xml version="1.0" encoding="UTF-8" standalone="no"?>
<!-- Created with Inkscape (http://www.inkscape.org/) -->

<svg
   xmlns:dc="http://purl.org/dc/elements/1.1/"
   xmlns:cc="http://creativecommons.org/ns#"
   xmlns:rdf="http://www.w3.org/1999/02/22-rdf-syntax-ns#"
   xmlns:svg="http://www.w3.org/2000/svg"
   xmlns="http://www.w3.org/2000/svg"
   xmlns:sodipodi="http://sodipodi.sourceforge.net/DTD/sodipodi-0.dtd"
   xmlns:inkscape="http://www.inkscape.org/namespaces/inkscape"
   width="26.140862mm"
   height="11.36207mm"
   viewBox="0 0 26.140861 11.36207"
   version="1.1"
   id="svg1326"
   sodipodi:docname="arrow-bend.svg"
   inkscape:version="0.92.4 (unknown)">
  <defs
     id="defs1320" />
  <sodipodi:namedview
     id="base"
     pagecolor="#ffffff"
     bordercolor="#666666"
     borderopacity="1.0"
     inkscape:pageopacity="0.0"
     inkscape:pageshadow="2"
     inkscape:zoom="4.0815926"
     inkscape:cx="87.921312"
     inkscape:cy="50.457299"
     inkscape:document-units="mm"
     inkscape:current-layer="layer1"
     showgrid="false"
     inkscape:window-width="1920"
     inkscape:window-height="1016"
     inkscape:window-x="0"
     inkscape:window-y="27"
     inkscape:window-maximized="1"
     fit-margin-top="0"
     fit-margin-left="0"
     fit-margin-right="0"
     fit-margin-bottom="0" />
  <metadata
     id="metadata1323">
    <rdf:RDF>
      <cc:Work
         rdf:about="">
        <dc:format>image/svg+xml</dc:format>
        <dc:type
           rdf:resource="http://purl.org/dc/dcmitype/StillImage" />
        <dc:title />
      </cc:Work>
    </rdf:RDF>
  </metadata>
  <g
     inkscape:label="Layer 1"
     inkscape:groupmode="layer"
     id="layer1"
     transform="translate(-51.507295,-118.63642)">
    <path
       sodipodi:nodetypes="ccccccc"
       d="m 69.215626,128.60126 c 0.356991,-0.63919 1.084644,-2.07542 1.084644,-2.07542 0,0 -11.251621,-0.12581 -18.41798,3.14277 1.9464,-6.6186 18.517954,-8.10083 18.517954,-8.10083 0,0 -0.677001,-1.45628 -1.015651,-2.10549 1.572664,0 5.453319,2.10369 8.007012,4.65738 -2.368714,2.36872 -6.690648,4.48159 -8.175979,4.48159 z"
       style="fill:#b1b1b1;fill-opacity:1;fill-rule:nonzero;stroke:#b1b1b1;stroke-width:0.36281979;stroke-miterlimit:4;stroke-dasharray:none;stroke-opacity:1"
       id="path1907"
       inkscape:connector-curvature="0" />
    <path
       inkscape:connector-curvature="0"
       id="sub0"
       style="fill:#6faa34;fill-opacity:1;fill-rule:nonzero;stroke:#fcfafa;stroke-width:0.36281979;stroke-miterlimit:4;stroke-dasharray:none;stroke-opacity:1"
       d="m 69.126736,127.9568 c 0.356991,-0.63919 1.084644,-2.07542 1.084644,-2.07542 0,0 -11.251623,-0.12581 -18.417982,3.14276 1.9464,-6.61859 18.517955,-8.10083 18.517955,-8.10083 0,0 -0.677001,-1.45628 -1.01565,-2.10548 1.572664,0 5.453318,2.10368 8.007012,4.65738 -2.368714,2.36871 -6.690648,4.48159 -8.175979,4.48159 z"
       sodipodi:nodetypes="ccccccc"
       inkscape:label="#path814" />
  </g>
</svg>
