<?xml version="1.0" encoding="UTF-8" standalone="no"?>
<!-- Created with Inkscape (http://www.inkscape.org/) -->

<svg
   xmlns:dc="http://purl.org/dc/elements/1.1/"
   xmlns:cc="http://creativecommons.org/ns#"
   xmlns:rdf="http://www.w3.org/1999/02/22-rdf-syntax-ns#"
   xmlns:svg="http://www.w3.org/2000/svg"
   xmlns="http://www.w3.org/2000/svg"
   xmlns:sodipodi="http://sodipodi.sourceforge.net/DTD/sodipodi-0.dtd"
   xmlns:inkscape="http://www.inkscape.org/namespaces/inkscape"
   width="54.58297mm"
   height="23.905359mm"
   viewBox="0 0 54.58297 23.905359"
   version="1.1"
   id="svg8"
   inkscape:version="0.92.4 (unknown)"
   sodipodi:docname="frame.svg">
  <defs
     id="defs2">
    <inkscape:path-effect
       end_linecap_type="zerowidth"
       miter_limit="4"
       linejoin_type="extrp_arc"
       start_linecap_type="zerowidth"
       interpolator_beta="0.2"
       interpolator_type="CubicBezierJohan"
       sort_points="true"
       offset_points="0.068125888,-2.8685257"
       is_visible="true"
       id="path-effect833"
       effect="powerstroke" />
    <inkscape:path-effect
       is_visible="true"
       id="path-effect831"
       effect="spiro" />
    <inkscape:path-effect
       effect="powerstroke"
       id="path-effect827"
       is_visible="true"
       offset_points="0.068125888,-2.8685257"
       sort_points="true"
       interpolator_type="CubicBezierJohan"
       interpolator_beta="0.2"
       start_linecap_type="zerowidth"
       linejoin_type="extrp_arc"
       miter_limit="4"
       end_linecap_type="zerowidth" />
    <inkscape:path-effect
       effect="spiro"
       id="path-effect825"
       is_visible="true" />
    <inkscape:path-effect
       effect="powerstroke"
       id="path-effect821"
       is_visible="true"
       offset_points="0,0.13229166"
       sort_points="true"
       interpolator_type="CubicBezierJohan"
       interpolator_beta="0.2"
       start_linecap_type="zerowidth"
       linejoin_type="extrp_arc"
       miter_limit="4"
       end_linecap_type="zerowidth" />
    <inkscape:path-effect
       effect="spiro"
       id="path-effect819"
       is_visible="true" />
  </defs>
  <sodipodi:namedview
     id="base"
     pagecolor="#ffffff"
     bordercolor="#666666"
     borderopacity="1.0"
     inkscape:pageopacity="0.0"
     inkscape:pageshadow="2"
     inkscape:zoom="1.299893"
     inkscape:cx="201.71626"
     inkscape:cy="155.96359"
     inkscape:document-units="mm"
     inkscape:current-layer="layer1"
     showgrid="false"
     inkscape:snap-others="false"
     inkscape:snap-global="false"
     fit-margin-top="0"
     fit-margin-left="0"
     fit-margin-right="0"
     fit-margin-bottom="0"
     inkscape:window-width="1920"
     inkscape:window-height="1016"
     inkscape:window-x="0"
     inkscape:window-y="27"
     inkscape:window-maximized="1" />
  <metadata
     id="metadata5">
    <rdf:RDF>
      <cc:Work
         rdf:about="">
        <dc:format>image/svg+xml</dc:format>
        <dc:type
           rdf:resource="http://purl.org/dc/dcmitype/StillImage" />
        <dc:title />
      </cc:Work>
    </rdf:RDF>
  </metadata>
  <g
     inkscape:label="Layer 1"
     inkscape:groupmode="layer"
     id="layer1"
     transform="translate(-40.515607,-188.19718)">
    <path
       style="fill:#cdcdcd;fill-opacity:1;fill-rule:nonzero;stroke:none;stroke-width:0.08340897px;stroke-linecap:butt;stroke-linejoin:miter;stroke-opacity:1"
       d="m 61.6437,188.19718 c -8.333053,0.14207 -17.571791,3.00599 -20.415516,8.62105 -2.512196,4.88467 1.934839,10.26549 8.378877,12.63345 8.159012,3.10773 18.017574,2.90467 27.046168,2.25691 7.518262,-0.63783 15.531736,-3.46939 17.845456,-8.64073 2.281116,-4.73953 -2.23614,-9.85434 -8.598656,-11.94803 -4.861789,-1.7211 -10.489671,-2.10485 -15.904017,-2.00093 -2.331651,-0.93436 -5.668208,-0.8773 -8.352312,-0.92172 z m 1.040941,1.03883 c 0.800464,0.002 3.494356,0.071 1.200912,0.15345 -3.206392,0.31708 -6.653122,0.41932 -9.629832,1.22156 -0.406196,0.845 -1.577961,1.16259 -2.696984,1.55017 1.411052,-0.0766 2.57809,0.11936 3.642544,0.68295 8.611496,-1.02323 17.83627,-2.13578 26.413315,-0.36596 5.921642,1.18127 11.399556,5.03422 10.118759,9.44182 -1.38442,4.68546 -8.468453,7.33529 -15.004273,7.98352 -8.661404,0.74612 -18.330581,1.08733 -26.283386,-1.91865 -5.992404,-2.14097 -9.955269,-7.32595 -6.938857,-11.6709 3.229164,-4.86242 11.681933,-7.09497 19.177802,-7.07796 z m 9.376729,1.09435 c -3.219952,-0.97369 1.760677,-1.63735 0,0 z"
       id="path829"
       inkscape:connector-curvature="0" />
    <path
       style="fill:#ff4444;fill-opacity:1;fill-rule:nonzero;stroke:none;stroke-width:0.26458332px;stroke-linecap:butt;stroke-linejoin:miter;stroke-opacity:1"
       d="m 73.453713,129.28385 c 0.510102,-0.12007 1.413379,-3.26937 1.931954,-3.3846 9.939996,-2.2088 22.089366,-4.12756 35.969543,-4.73829 12.56418,-0.55703 28.50835,-0.10823 42.45292,6.80441 6.22339,3.12187 12.38326,7.74908 16.95652,14.07313 4.22202,5.83809 7.05168,13.20635 7.01885,20.95928 -0.0317,7.32987 -2.64053,14.59486 -7.01112,20.62853 -4.24805,5.86428 -10.04691,10.50423 -16.47361,13.83175 -12.66113,6.65885 -27.28384,8.12332 -41.24354,8.41882 -8.29778,0.18403 -16.74593,-0.0427 -24.960968,-1.29325 -8.285972,-1.26137 -16.292739,-3.55847 -23.645649,-7.48856 -7.51232,-4.06769 -14.004298,-9.74541 -18.429065,-16.69789 -4.650797,-7.30752 -6.814801,-15.84829 -5.93739,-23.91109 0.941237,-8.64552 5.276343,-16.31176 10.667198,-21.92857 6.109636,-6.36569 13.702691,-10.45283 20.701099,-12.98885 15.660319,-5.72236 30.927775,-4.74369 42.293495,-1.4749 -11.37632,-3.27184 -26.64235,-4.17438 -42.229567,1.64794 -6.959037,2.62074 -14.427893,6.80078 -20.359057,13.19879 -5.236137,5.64831 -9.313849,13.24081 -10.060315,21.64585 -0.695171,7.82324 1.574754,16.0367 6.202748,22.9785 4.403417,6.60506 10.782371,11.94548 18.112293,15.70776 7.136015,3.71356 14.91973,5.86011 23.022803,7.00144 8.039554,1.13239 16.336125,1.26787 24.549935,0.99353 13.90815,-0.47873 27.91016,-2.13145 39.82502,-8.60072 5.98362,-3.30196 11.21152,-7.75576 14.93039,-13.18167 3.82718,-5.58422 5.93006,-12.10701 5.79806,-18.45631 -0.13884,-6.7103 -2.75296,-13.10568 -6.5922,-18.16404 -4.16066,-5.48214 -9.73749,-9.50968 -15.42675,-12.22263 -12.74252,-6.15888 -27.54192,-6.54911 -39.896,-5.91447 -13.508064,0.69843 -25.321985,2.62334 -34.991152,4.77195 -0.504554,0.11212 -2.666343,-2.33591 -3.176445,-2.21584 z"
       id="sub0"
       inkscape:connector-curvature="0"
       inkscape:path-effect="#path-effect825;#path-effect827"
       inkscape:original-d="m 73.453713,129.28385 c 3.315495,2.96923 33.125277,-4.93462 38.034547,-5.3395 4.6678,-0.38497 63.64725,13.90014 64.17162,39.06898 0.49325,23.67531 -39.07074,41.05803 -62.64087,41.5589 -23.570139,0.50086 -72.508231,-33.99184 -72.430425,-48.03601 0.08527,-15.39118 13.540017,-25.90034 30.893834,-34.88103 17.542214,-9.0782 23.357449,9.81438 42.261531,-1.56142"
       sodipodi:nodetypes="csszssc"
       transform="matrix(0.3845324,0,0,0.25844474,25.866434,158.2622)"
       inkscape:label="#path823" />
  </g>
</svg>
