<?xml version="1.0" encoding="UTF-8" standalone="no"?>
<!-- Created with Inkscape (http://www.inkscape.org/) -->

<svg
   xmlns:dc="http://purl.org/dc/elements/1.1/"
   xmlns:cc="http://creativecommons.org/ns#"
   xmlns:rdf="http://www.w3.org/1999/02/22-rdf-syntax-ns#"
   xmlns:svg="http://www.w3.org/2000/svg"
   xmlns="http://www.w3.org/2000/svg"
   xmlns:sodipodi="http://sodipodi.sourceforge.net/DTD/sodipodi-0.dtd"
   xmlns:inkscape="http://www.inkscape.org/namespaces/inkscape"
   width="61.917965mm"
   height="4.0599499mm"
   viewBox="0 0 61.917965 4.0599498"
   version="1.1"
   id="svg8"
   inkscape:version="0.92.4 (unknown)"
   sodipodi:docname="line.svg">
  <defs
     id="defs2">
    <inkscape:path-effect
       effect="bspline"
       id="path-effect823"
       is_visible="true"
       weight="33.333333"
       steps="2"
       helper_size="0"
       apply_no_weight="true"
       apply_with_weight="true"
       only_selected="false" />
    <inkscape:path-effect
       effect="powerstroke"
       id="path-effect819"
       is_visible="true"
       offset_points="0,0.13229166"
       sort_points="true"
       interpolator_type="CubicBezierJohan"
       interpolator_beta="0.2"
       start_linecap_type="zerowidth"
       linejoin_type="extrp_arc"
       miter_limit="4"
       end_linecap_type="zerowidth" />
    <inkscape:path-effect
       effect="bspline"
       id="path-effect817"
       is_visible="true"
       weight="33.333333"
       steps="2"
       helper_size="0"
       apply_no_weight="true"
       apply_with_weight="true"
       only_selected="false" />
  </defs>
  <sodipodi:namedview
     id="base"
     pagecolor="#ffffff"
     bordercolor="#666666"
     borderopacity="1.0"
     inkscape:pageopacity="0.0"
     inkscape:pageshadow="2"
     inkscape:zoom="4.4121891"
     inkscape:cx="116.61438"
     inkscape:cy="-43.367897"
     inkscape:document-units="mm"
     inkscape:current-layer="layer1"
     showgrid="false"
     fit-margin-top="1"
     fit-margin-left="0"
     fit-margin-right="0"
     fit-margin-bottom="1"
     inkscape:window-width="1920"
     inkscape:window-height="1016"
     inkscape:window-x="0"
     inkscape:window-y="27"
     inkscape:window-maximized="1" />
  <metadata
     id="metadata5">
    <rdf:RDF>
      <cc:Work
         rdf:about="">
        <dc:format>image/svg+xml</dc:format>
        <dc:type
           rdf:resource="http://purl.org/dc/dcmitype/StillImage" />
        <dc:title></dc:title>
      </cc:Work>
    </rdf:RDF>
  </metadata>
  <g
     inkscape:label="Layer 1"
     inkscape:groupmode="layer"
     id="layer1"
     transform="translate(-57.208984,-125.0566)">
    <path
       style="color:#000000;font-style:normal;font-variant:normal;font-weight:normal;font-stretch:normal;font-size:medium;line-height:normal;font-family:sans-serif;font-variant-ligatures:normal;font-variant-position:normal;font-variant-caps:normal;font-variant-numeric:normal;font-variant-alternates:normal;font-feature-settings:normal;text-indent:0;text-align:start;text-decoration:none;text-decoration-line:none;text-decoration-style:solid;text-decoration-color:#000000;letter-spacing:normal;word-spacing:normal;text-transform:none;writing-mode:lr-tb;direction:ltr;text-orientation:mixed;dominant-baseline:auto;baseline-shift:baseline;text-anchor:start;white-space:normal;shape-padding:0;clip-rule:nonzero;display:inline;overflow:visible;visibility:visible;opacity:1;isolation:auto;mix-blend-mode:normal;color-interpolation:sRGB;color-interpolation-filters:linearRGB;solid-color:#000000;solid-opacity:1;vector-effect:none;fill:#6b6eff;fill-opacity:1;fill-rule:nonzero;stroke:none;stroke-width:2;stroke-linecap:round;stroke-linejoin:miter;stroke-miterlimit:4;stroke-dasharray:4, 4;stroke-dashoffset:0;stroke-opacity:1;color-rendering:auto;image-rendering:auto;shape-rendering:auto;text-rendering:auto;enable-background:accumulate"
       d="m 114.16602,126.06055 -0.80079,0.40234 -0.15625,0.88086 0.61329,0.6543 0.3457,0.0625 4,-0.004 0.80078,-0.40234 0.1582,-0.88282 -0.61328,-0.65429 -0.34765,-0.0605 z m -8,0.008 -0.80079,0.40234 -0.15625,0.88086 0.61329,0.6543 0.3457,0.0625 4,-0.004 0.80078,-0.40234 0.1582,-0.88281 -0.61328,-0.6543 -0.34765,-0.0606 z m -8.000004,0.008 -0.800782,0.40235 -0.15625,0.88086 0.613282,0.65429 0.345703,0.0625 4.000001,-0.004 0.80078,-0.40235 0.1582,-0.88281 -0.61328,-0.6543 -0.34765,-0.0605 z m -8,0.008 -0.800782,0.40235 -0.15625,0.88086 0.613282,0.65429 0.345703,0.0625 4,-0.004 0.800781,-0.40235 0.158203,-0.88281 -0.613281,-0.65234 -0.347656,-0.0625 z m -8,0.008 -0.800782,0.40234 -0.15625,0.88086 0.613282,0.6543 0.345703,0.0625 4,-0.004 0.800781,-0.40234 0.158203,-0.88282 -0.613281,-0.65234 -0.347656,-0.0625 z m -8,0.008 -0.800782,0.40234 -0.15625,0.88086 0.613282,0.6543 0.345703,0.0625 4,-0.004 0.800781,-0.40234 0.158203,-0.88281 -0.613281,-0.65235 -0.347656,-0.0625 z m -8,0.008 -0.800782,0.40235 -0.15625,0.88085 0.613282,0.6543 0.345703,0.0625 4,-0.004 0.800781,-0.40235 0.158203,-0.88281 -0.613281,-0.65234 -0.347656,-0.0625 z m -8,0.008 -0.800782,0.40235 -0.15625,0.88281 0.613282,0.65234 0.345703,0.0625 4,-0.004 0.800781,-0.40235 0.158203,-0.88281 -0.613281,-0.65234 -0.347656,-0.0625 z"
       id="sub0"
       inkscape:connector-curvature="0" />
  </g>
</svg>
