<?xml version="1.0" encoding="UTF-8" standalone="no"?>
<!-- Created with Inkscape (http://www.inkscape.org/) -->

<svg
   xmlns:dc="http://purl.org/dc/elements/1.1/"
   xmlns:cc="http://creativecommons.org/ns#"
   xmlns:rdf="http://www.w3.org/1999/02/22-rdf-syntax-ns#"
   xmlns:svg="http://www.w3.org/2000/svg"
   xmlns="http://www.w3.org/2000/svg"
   xmlns:sodipodi="http://sodipodi.sourceforge.net/DTD/sodipodi-0.dtd"
   xmlns:inkscape="http://www.inkscape.org/namespaces/inkscape"
   width="46.174923mm"
   height="52mm"
   viewBox="0 0 46.174923 52"
   version="1.1"
   id="svg860"
   inkscape:version="0.92.4 (unknown)"
   sodipodi:docname="switch-pengium.svg">
  <defs
     id="defs854" />
  <sodipodi:namedview
     id="base"
     pagecolor="#ffffff"
     bordercolor="#666666"
     borderopacity="1.0"
     inkscape:pageopacity="0.0"
     inkscape:pageshadow="2"
     inkscape:zoom="1.0858268"
     inkscape:cx="15.453307"
     inkscape:cy="47.390414"
     inkscape:document-units="mm"
     inkscape:current-layer="layer1"
     showgrid="false"
     fit-margin-top="1"
     fit-margin-left="1"
     fit-margin-bottom="1"
     fit-margin-right="1"
     inkscape:window-width="1920"
     inkscape:window-height="1016"
     inkscape:window-x="0"
     inkscape:window-y="27"
     inkscape:window-maximized="1" />
  <metadata
     id="metadata857">
    <rdf:RDF>
      <cc:Work
         rdf:about="">
        <dc:format>image/svg+xml</dc:format>
        <dc:type
           rdf:resource="http://purl.org/dc/dcmitype/StillImage" />
        <dc:title></dc:title>
      </cc:Work>
    </rdf:RDF>
  </metadata>
  <g
     inkscape:label="Layer 1"
     inkscape:groupmode="layer"
     id="layer1"
     transform="translate(-67.726789,-60.476892)">
    <g
       transform="matrix(1.2138161,0,0,1.2138161,-54.051347,-58.502189)"
       id="switch3"
       inkscape:label="Layer 1"
       style="fill:#009b39;fill-opacity:0.90980392">
      <path
         inkscape:connector-curvature="0"
         id="path826"
         d="m 104.99422,139.08911 c -1.89436,-1.57637 -0.6428,-4.99762 1.72216,-5.29628 2.01196,-0.75835 2.86258,1.57479 3.90591,2.78978 0.82027,1.269 2.23066,2.0529 3.07701,3.23823 -2.58809,0.28283 -5.20433,0.12815 -7.8055,0.16785 -0.29986,-0.29986 -0.59972,-0.59972 -0.89958,-0.89958 z m 10.58871,0.40072 c -2.24507,-1.27218 -1.5818,-5.17828 0.96141,-5.61272 1.96196,-0.0182 4.11875,-0.97033 4.21533,-3.20606 0.62839,-2.92213 0.49427,-5.92762 -0.0283,-8.85279 -2.72893,0.90306 -6.05753,1.00321 -8.32662,-1.01595 -1.74653,-1.30599 -2.94756,-3.29464 -2.94342,-5.51391 -0.40272,-1.26648 0.55253,-2.69595 1.44181,-1.06674 1.41428,1.82254 3.79892,2.61563 6.04581,2.24801 1.19543,0.0717 2.63235,-0.41949 1.62959,-1.82946 -0.49546,-2.14829 2.71298,-1.2267 3.68577,-2.57995 2.46353,-1.62881 3.21021,-5.27484 1.45925,-7.68839 -1.62152,-2.53544 -5.88702,-3.06988 -7.83075,-0.61285 -1.3927,1.12347 -1.49993,3.74104 -3.56651,3.92702 -1.69177,-0.0483 -3.38006,-1.39883 -3.68782,-3.06228 1.43086,-0.92796 3.13912,-1.78329 4.32219,-3.20081 1.84401,-1.809172 4.42863,-2.826012 7.01875,-2.526514 3.56884,0.164695 6.59496,2.938564 7.53637,6.307004 0.81126,2.26841 0.16499,4.80222 -0.9319,6.8497 0.0173,1.76586 1.74447,2.98275 2.34017,4.6072 1.54513,2.76442 2.35819,5.8916 2.35646,9.05964 0.15562,2.68598 -0.19645,5.38978 0.10484,8.06495 0.25245,2.02836 2.71672,2.69037 3.23605,4.39025 -0.8151,1.85258 -3.59027,2.52463 -5.05808,1.08039 -0.53958,-0.32068 -0.96153,-1.33329 -1.55481,-1.27033 -1.96227,1.10572 -4.08898,2.03785 -6.38941,1.975 -1.91649,-0.0477 -3.92252,0.26378 -5.77549,-0.32902 z m -9.24532,-18.20209 c -1.08074,-2.2305 -1.23127,-5.03327 0.29538,-7.10425 0.37189,-0.88323 1.63611,-1.75125 1.41104,-0.13259 -0.2919,2.05702 1.05119,4.14434 0.0544,6.09334 -0.3993,0.76476 -1.02377,3.32416 -1.76084,1.1435 z m 12.53577,-14.11278 c -1.11364,-0.15413 -2.56919,-0.91136 -0.82299,-1.70486 1.16575,-0.96061 4.51226,0.11464 3.64465,1.6066 -0.83259,0.4485 -1.95767,0.46983 -2.82166,0.0983 z"
         style="fill:#009b39;fill-opacity:0.90980392;stroke-width:0.26458332" />
    </g>
    <g
       transform="matrix(0.98213457,0,0,0.98213457,11.597384,15.17436)"
       id="switch2"
       inkscape:label="Layer 1"
       style="fill:#009b39;fill-opacity:0.90980392">
      <path
         inkscape:connector-curvature="0"
         id="path866"
         d="m 68.539425,97.92286 c -2.359557,-0.869126 -2.162875,-3.805924 -1.299219,-5.695604 0.595748,-0.840689 0.05815,-1.549799 -0.45654,-2.26157 -1.791309,-2.98948 -3.46846,-6.199313 -3.969959,-9.683825 -1.517017,-1.320096 -2.962329,2.957364 -4.564131,2.622542 -0.270887,-3.578123 0.16131,-7.230014 0.948245,-10.729487 2.091457,-7.943867 5.67081,-15.871258 11.943778,-21.374229 3.668702,-3.258142 9.027483,-4.617926 13.709934,-2.924965 3.799504,1.291569 6.686003,4.353422 10.396278,5.799478 1.352982,0.915961 4.620562,0.408179 5.034829,1.593893 -2.426241,2.439437 -3.538117,6.045912 -3.48366,9.440078 0.373398,5.586919 3.34833,10.509544 6.30777,15.09568 0.47508,1.902283 -3.376357,1.375489 -4.686683,1.536902 -1.100109,2.101946 -0.798519,5.441781 -2.34905,7.724918 -1.905754,2.080343 0.240837,4.169432 0.163422,6.447064 -0.238585,2.988702 -4.009649,2.923946 -6.056724,1.915287 -2.232756,-1.778159 -4.723295,-1.742687 -7.390064,-1.216723 -2.17098,0.103098 -4.32906,-0.200867 -6.434593,-0.706635 -2.451227,1.181242 -4.969756,2.899806 -7.813633,2.417196 z m 15.138366,-8.802476 c 3.914847,-0.396761 7.42684,-3.046068 8.817675,-6.737363 1.872643,-3.990951 1.503619,-8.534063 1.257586,-12.808839 -0.784096,-5.659909 -3.597893,-11.501775 -8.767508,-14.340621 -2.219255,-1.00319 -4.833715,-0.745898 -7.183255,-0.418534 -3.456909,1.265341 -6.922067,4.123152 -7.321609,7.985954 -0.205548,2.50164 0.12772,5.141663 1.741017,7.164629 1.848112,2.166698 -1.559627,4.188711 -1.45874,6.584074 -1.237539,4.742683 1.208981,10.34392 5.991167,11.973649 2.197692,0.834751 4.61543,0.937704 6.923667,0.597051 z M 81.010844,62.868233 c -2.176681,-1.282843 -1.768794,-5.048558 0.712749,-5.766972 2.399295,-0.982859 4.895337,1.782538 3.91542,4.116615 -0.550654,1.937286 -2.991852,2.301147 -4.628169,1.650357 z"
         style="fill:#009b39;fill-opacity:0.90980392;stroke-width:0.26458335" />
    </g>
    <g
       transform="matrix(1.0825492,0,0,1.0825492,-32.492114,-73.3448)"
       id="switch1"
       inkscape:label="Layer 1"
       style="fill:#009b39;fill-opacity:0.90980392">
      <path
         sodipodi:nodetypes="cccccccccccccccccccccccccccccccccccc"
         inkscape:connector-curvature="0"
         id="path828"
         d="m 111.13708,170.32377 c -0.80019,-0.38563 -1.14376,-0.7534 -2.2248,-1.70052 -2.44436,0.24513 -4.45474,0.64677 -6.49164,-0.79333 -0.93472,-0.29369 -2.01007,0.90696 -3.603772,1.04116 2.269342,-1.59152 4.123782,-8.13965 4.231772,-11.47251 0.0413,-5.94301 -0.14796,-10.70301 0.71161,-16.87255 0.81883,-4.10791 2.05027,-8.68061 4.85847,-11.92278 1.98749,-2.68196 5.3545,-4.49831 8.7622,-3.97114 2.17533,0.13972 4.04527,1.26603 5.64367,2.30488 2.17023,-0.11734 4.19366,0.41998 5.37127,1.79299 -3.55503,0.64002 -5.56855,1.24382 -8.00987,2.71408 -1.03085,-1.96202 -2.40795,-4.22592 -4.83512,-4.21526 -3.42662,-0.13913 -5.80822,3.2119 -5.32663,6.45818 0.42327,4.14319 2.41662,7.7648 4.95306,11.02484 1.32846,1.94734 1.76327,4.34696 1.53797,6.716 0.0692,1.99072 -0.28101,4.00646 -1.99114,6.32308 -0.44852,-3.81409 -2.38089,-7.52901 -5.13447,-10.16641 -0.95555,-1.16243 -3.84893,-3.72034 -3.4824,-0.79517 0.20308,2.22216 1.33554,4.54501 2.72205,6.29962 1.15999,1.80058 2.23065,2.45858 2.74489,5.47971 -0.13865,1.85367 -0.98838,3.82117 -0.1748,5.64146 1.6549,1.71609 4.51947,1.30825 6.66263,0.91495 2.7143,-1.35806 3.19949,-1.96554 4.56501,-4.58551 0.37578,-1.29861 1.00015,-3.08291 1.31585,-5.30978 0.006,-3.52666 0.67779,-5.88939 -0.88497,-9.7932 -0.71207,-1.64192 -1.51201,-1.30839 -3.39588,-7.76714 3.45988,4.88668 4.81506,5.71785 6.38989,7.86769 1.82071,2.78366 3.10134,5.89605 2.92184,11.23193 -1.31554,-0.88847 -1.88462,-2.64845 -3.49812,-2.91939 0.0493,3.78731 -0.26708,6.56343 -1.85331,9.16761 -0.38635,1.51352 -3.36367,2.68783 -1.8957,4.09669 1.04499,0.44752 1.91545,1.14068 2.65927,2.54206 -0.95168,-0.0255 -2.10077,0.36401 -3.9613,0.17638 -2.17463,-1.79387 -6.2421,-1.84219 -3.39175,0.61193 -0.71745,0.62657 -1.6165,0.003 -2.03533,0.12103 -1.22121,-0.0219 -2.65838,-0.007 -3.86045,-0.24158 z"
         style="opacity:0.95;fill:#009b39;fill-opacity:0.90980392;fill-rule:nonzero;stroke:none;stroke-width:1;stroke-linecap:round;stroke-linejoin:round;stroke-miterlimit:4;stroke-dasharray:none;stroke-dashoffset:0;stroke-opacity:1;paint-order:stroke markers fill" />
    </g>
    <g
       transform="matrix(0.78277074,0,0,0.78277074,50.368026,-14.828686)"
       id="switch0"
       inkscape:label="Layer 1"
       style="fill:#009b3a;fill-opacity:0.95294118">
      <path
         sodipodi:nodetypes="cccccccccccccccccccccccc"
         inkscape:connector-curvature="0"
         id="path833"
         d="m 43.601367,161.15291 c -3.543371,-1.37987 -4.189108,-5.55906 -5.108762,-8.78484 -0.424964,-2.47085 0.336999,-5.44601 -1.659703,-7.40937 -1.9656,0.41516 -4.079771,1.35204 -6.045639,0.60891 -1.474514,-1.37933 0.120343,-2.72858 1.043081,-3.76549 5.038924,-6.20705 6.564691,-14.26083 8.403679,-21.82804 1.2346,-5.27876 1.004517,-10.83162 2.713901,-15.99933 0.961675,-3.19183 3.71506,-5.792304 7.107643,-6.105033 3.333081,-0.688764 6.443974,-0.65256 8.981138,1.708004 4.05906,4.281649 7.851885,3.374989 11.463969,3.886079 0.842789,0.21958 1.189522,0.57321 1.737296,1.46975 -4.304438,-0.0771 -6.042375,1.44829 -7.948328,3.51276 -2.01131,-1.69783 -2.929225,-4.60117 -5.26687,-5.66834 -3.443391,-1.23795 -7.658783,-1.65321 -9.842016,1.65127 -1.7014,3.20526 0.872855,6.78719 3.754741,8.22975 3.457403,1.71642 7.614096,2.83799 9.666925,6.43328 3.067191,4.69945 2.80798,10.58888 5.029325,15.63443 1.259836,3.25096 2.97113,6.38934 5.466632,8.85825 0.583014,3.05684 -3.607612,2.615 -5.103301,1.16895 -3.432344,0.10588 -2.757536,4.49424 -3.13158,6.87542 -0.835894,3.14312 -1.023567,6.92468 -3.75699,9.10191 -2.764238,1.55384 -5.313856,-1.17179 -7.115093,-2.99147 -2.226659,-2.27434 -5.353257,0.0143 -6.929383,1.91399 -0.808977,1.16133 -1.953215,2.14259 -3.460665,1.49916 z"
         style="opacity:0.95;fill:#009b3a;fill-opacity:0.95294118;fill-rule:nonzero;stroke:none;stroke-width:2.06209064;stroke-linecap:round;stroke-linejoin:round;stroke-miterlimit:4;stroke-dasharray:4.12418149, 4.12418149;stroke-dashoffset:0;stroke-opacity:1;paint-order:stroke markers fill" />
      <path
         sodipodi:nodetypes="ccc"
         inkscape:connector-curvature="0"
         id="path836"
         d="m 56.84063,104.87377 c -4.666157,1.10302 -0.204813,5.45543 2.40507,2.90708 1.470122,-1.71145 -0.319084,-2.68366 -2.40507,-2.90708 z"
         style="opacity:0.95;fill:#009b3a;fill-opacity:0.95294118;fill-rule:nonzero;stroke:none;stroke-width:3.03806543;stroke-linecap:round;stroke-linejoin:round;stroke-miterlimit:4;stroke-dasharray:6.07613042, 6.07613042;stroke-dashoffset:0;stroke-opacity:1;paint-order:stroke markers fill" />
    </g>
  </g>
</svg>
