<?xml version="1.0" encoding="UTF-8" standalone="no"?>
<!-- Created with Inkscape (http://www.inkscape.org/) -->

<svg
   xmlns:dc="http://purl.org/dc/elements/1.1/"
   xmlns:cc="http://creativecommons.org/ns#"
   xmlns:rdf="http://www.w3.org/1999/02/22-rdf-syntax-ns#"
   xmlns:svg="http://www.w3.org/2000/svg"
   xmlns="http://www.w3.org/2000/svg"
   xmlns:sodipodi="http://sodipodi.sourceforge.net/DTD/sodipodi-0.dtd"
   xmlns:inkscape="http://www.inkscape.org/namespaces/inkscape"
   width="41.981125mm"
   height="52.000038mm"
   viewBox="0 0 41.981125 52.000038"
   version="1.1"
   id="svg860"
   inkscape:version="0.92.4 (unknown)"
   sodipodi:docname="switch-penguin2.svg">
  <defs
     id="defs854" />
  <sodipodi:namedview
     id="base"
     pagecolor="#ffffff"
     bordercolor="#666666"
     borderopacity="1.0"
     inkscape:pageopacity="0.0"
     inkscape:pageshadow="2"
     inkscape:zoom="2.2081126"
     inkscape:cx="16.758841"
     inkscape:cy="146.34106"
     inkscape:document-units="mm"
     inkscape:current-layer="layer1"
     showgrid="false"
     fit-margin-top="1"
     fit-margin-left="1"
     fit-margin-bottom="1"
     fit-margin-right="1"
     inkscape:window-width="1920"
     inkscape:window-height="1016"
     inkscape:window-x="0"
     inkscape:window-y="27"
     inkscape:window-maximized="1" />
  <metadata
     id="metadata857">
    <rdf:RDF>
      <cc:Work
         rdf:about="">
        <dc:format>image/svg+xml</dc:format>
        <dc:type
           rdf:resource="http://purl.org/dc/dcmitype/StillImage" />
        <dc:title></dc:title>
      </cc:Work>
    </rdf:RDF>
  </metadata>
  <g
     inkscape:label="Layer 1"
     inkscape:groupmode="layer"
     id="layer1"
     transform="translate(-89.487195,-56.144876)">
    <path
       style="fill:#009b39;fill-opacity:1;stroke-width:0.32115549"
       d="m 93.055862,105.99441 c -2.29941,-1.91343 -0.78024,-6.066185 2.090387,-6.428705 2.44215,-0.9205 3.474647,1.911495 4.741057,3.386275 0.995654,1.54033 2.707614,2.49184 3.734924,3.93061 -3.14146,0.34331 -6.317101,0.15555 -9.474441,0.20374 -0.36398,-0.36397 -0.72795,-0.72795 -1.091927,-1.09192 z m 12.852738,0.4864 c -2.72509,-1.5442 -1.92001,-6.28547 1.16698,-6.812805 2.38146,-0.0221 4.99941,-1.1778 5.11664,-3.89157 0.76275,-3.54693 0.59995,-7.19504 -0.0344,-10.74566 -3.31242,1.09615 -7.35273,1.21771 -10.10698,-1.23318 -2.119974,-1.58523 -3.577801,-3.99908 -3.572781,-6.69287 -0.48882,-1.53727 0.670677,-3.27239 1.750101,-1.29482 1.71667,2.21222 4.61118,3.17489 7.33849,2.72867 1.45104,0.087 3.19519,-0.50919 1.97803,-2.22063 -0.6014,-2.60763 3.29306,-1.48899 4.47385,-3.13159 2.99027,-1.97707 3.8966,-6.402682 1.77126,-9.332288 -1.96823,-3.077558 -7.14577,-3.72627 -9.5051,-0.743887 -1.69048,1.363686 -1.82064,4.540935 -4.32908,4.76668 -2.053494,-0.05863 -4.102771,-1.697922 -4.476341,-3.717045 1.736807,-1.126372 3.810321,-2.164586 5.246351,-3.885194 2.23828,-2.196002 5.37554,-3.430259 8.51947,-3.066724 4.33192,0.19991 8.00507,3.566877 9.14776,7.655543 0.98472,2.753433 0.20027,5.829015 -1.13115,8.314275 0.021,2.14343 2.11746,3.62051 2.84053,5.59229 1.87551,3.3555 2.86241,7.15132 2.86031,10.99674 0.1889,3.26029 -0.23845,6.5422 0.12726,9.78937 0.30643,2.462055 3.2976,3.265605 3.92797,5.328945 -0.98938,2.24871 -4.35793,3.06445 -6.13958,1.31141 -0.65495,-0.38925 -1.16712,-1.61837 -1.88725,-1.54195 -2.38183,1.34214 -4.96327,2.47358 -7.75557,2.39729 -2.32627,-0.0579 -4.76122,0.32017 -7.01038,-0.39938 z M 94.686489,84.386825 c -1.31182,-2.70742 -1.494537,-6.10947 0.35854,-8.62326 0.4514,-1.07207 1.98593,-2.12569 1.71274,-0.16094 -0.35431,2.49685 1.27595,5.03047 0.066,7.3962 -0.48468,0.92828 -1.24267,4.03492 -2.13734,1.388 z M 109.90261,67.256503 c -1.35176,-0.187086 -3.11853,-1.106223 -0.99896,-2.069387 1.41501,-1.166003 5.47706,0.139152 4.42394,1.950117 -1.01062,0.544397 -2.37626,0.570288 -3.42498,0.119319 z"
       id="switch0"
       inkscape:connector-curvature="0"
       inkscape:label="#path826" />
    <path
       style="fill:#009b39;fill-opacity:1;stroke-width:0.24721399"
       d="m 99.70575,107.01578 c -2.097396,-0.85359 -1.922567,-3.73792 -1.154868,-5.59384 0.529557,-0.82567 0.05169,-1.52211 -0.405816,-2.22117 -1.592283,-2.93607 -3.083093,-6.088557 -3.528873,-9.510817 -1.348467,-1.296512 -2.633197,2.904529 -4.057029,2.575689 -0.24079,-3.514198 0.143387,-7.100846 0.842889,-10.5378 1.859085,-7.801946 5.04075,-15.587711 10.616757,-20.992369 3.26108,-3.199934 8.02447,-4.535425 12.18667,-2.872709 3.37736,1.268494 5.94315,4.275646 9.24121,5.695867 1.20266,0.899597 4.10719,0.400887 4.47543,1.565418 -2.15667,2.395855 -3.14502,5.937899 -3.0966,9.271427 0.33191,5.487106 2.97631,10.321786 5.60694,14.825989 0.42229,1.868298 -3.00123,1.350915 -4.16597,1.509445 -0.97788,2.064393 -0.7098,5.34456 -2.08806,7.58691 -1.69401,2.04317 0.21409,4.09494 0.14526,6.33189 -0.21207,2.9353 -3.56415,2.8717 -5.38379,1.88106 -1.98469,-1.74639 -4.19851,-1.71155 -6.56899,-1.19498 -1.92977,0.10126 -3.84807,-0.19728 -5.71967,-0.69401 -2.17888,1.16014 -4.41758,2.84799 -6.94549,2.374 z m 13.4564,-8.64521 c 3.47989,-0.38967 6.60168,-2.991647 7.83799,-6.616995 1.66459,-3.919651 1.33656,-8.381598 1.11787,-12.580004 -0.69698,-5.558792 -3.19816,-11.296291 -7.7934,-14.084419 -1.97269,-0.985268 -4.29666,-0.732573 -6.38516,-0.411057 -3.07282,1.242735 -6.15298,4.04949 -6.50813,7.843281 -0.18271,2.456948 0.11353,5.049805 1.54758,7.03663 1.64278,2.127989 -1.38634,4.113878 -1.29667,6.466447 -1.10004,4.657953 1.07466,10.159117 5.32552,11.759737 1.95351,0.81983 4.10263,0.92095 6.1544,0.58638 z m -2.37063,-25.783143 c -1.93484,-1.259924 -1.57227,-4.958363 0.63356,-5.663943 2.13271,-0.965299 4.35144,1.750693 3.4804,4.04307 -0.48948,1.902676 -2.65945,2.260036 -4.11396,1.620873 z"
       id="switch3"
       inkscape:connector-curvature="0"
       inkscape:label="#path866" />
    <path
       style="opacity:1;fill:#009b3a;fill-opacity:1;fill-rule:nonzero;stroke:none;stroke-width:1.61414409;stroke-linecap:round;stroke-linejoin:round;stroke-miterlimit:4;stroke-dasharray:3.22828859, 3.22828859;stroke-dashoffset:0;stroke-opacity:1;paint-order:stroke markers fill"
       d="m 111.6001,57.147861 c -0.77296,0.01944 -1.5711,0.132274 -2.38642,0.300756 -2.65561,0.244795 -4.81122,2.280566 -5.56399,4.779035 -1.33806,4.04513 -1.15801,8.39173 -2.12442,12.52379 -1.43951,5.92339 -2.633557,12.22759 -6.577887,17.08629 -0.72229,0.81166 -1.9707,1.86793 -0.81649,2.94762 1.53882,0.5817 3.19392,-0.15148 4.73253,-0.47645 1.562957,1.53686 0.96649,3.86554 1.299137,5.799648 0.71988,2.52505 1.22507,5.79645 3.99872,6.87658 1.17999,0.50365 2.07564,-0.26452 2.70888,-1.17357 1.23375,-1.48702 3.68099,-3.27838 5.42395,-1.4981 1.40996,1.42439 3.40592,3.55776 5.56969,2.34146 2.13964,-1.70427 2.28659,-4.66429 2.9409,-7.124628 0.29279,-1.86392 -0.23521,-5.29923 2.45153,-5.38211 1.17078,1.13193 4.45095,1.47813 3.99458,-0.91467 -1.95339,-1.93259 -3.29314,-4.38919 -4.27931,-6.93394 -1.7388,-3.94951 -1.53582,-8.55994 -3.93672,-12.23853 -1.6069,-2.81429 -4.86062,-3.69231 -7.56698,-5.03587 -2.25585,-1.12919 -4.27115,-3.933 -2.93934,-6.44198 1.70896,-2.586654 5.00905,-2.261463 7.70443,-1.292432 1.82984,0.835352 2.54835,3.107922 4.12274,4.436942 1.49193,-1.61601 2.85194,-2.81006 6.22132,-2.74971 -0.42878,-0.70178 -0.6999,-0.978433 -1.35961,-1.150314 -2.82743,-0.400066 -5.79629,0.309874 -8.9736,-3.041675 -1.36539,-1.270348 -2.94314,-1.680909 -4.64364,-1.638142 z m 2.92437,5.783631 c -3.65253,0.86341 -0.16037,4.27008 1.88257,2.27531 1.15077,-1.33967 -0.24972,-2.10043 -1.88257,-2.27531 z"
       id="switch2"
       inkscape:label="#path833"
       inkscape:connector-curvature="0" />
    <path
       style="opacity:1;fill:#009b39;fill-opacity:1;fill-rule:nonzero;stroke:none;stroke-width:1.08254921;stroke-linecap:round;stroke-linejoin:round;stroke-miterlimit:4;stroke-dasharray:none;stroke-dashoffset:0;stroke-opacity:1;paint-order:stroke markers fill"
       d="m 107.48276,106.70709 c -0.86625,-0.41747 -1.23818,-0.8156 -2.40846,-1.8409 -2.64614,0.26537 -4.82247,0.70016 -7.027524,-0.85882 -1.01188,-0.31793 -2.176,0.98183 -3.90126,1.12711 2.45668,-1.7229 4.4642,-8.811566 4.5811,-12.419556 0.0447,-6.4336 -0.16017,-11.58653 0.77036,-18.26536 0.886424,-4.44702 2.219524,-9.39719 5.259534,-12.907 2.15156,-2.90335 5.79651,-4.86964 9.4855,-4.29895 2.3549,0.15125 4.3792,1.37054 6.10955,2.49514 2.34938,-0.12702 4.53984,0.45465 5.81466,1.941 -3.84849,0.69285 -6.02823,1.3465 -8.67107,2.93813 -1.11595,-2.12399 -2.60673,-4.57477 -5.23426,-4.56323 -3.70947,-0.15061 -6.28767,3.47704 -5.76633,6.9913 0.45821,4.4852 2.61611,8.40578 5.36192,11.93493 1.43813,2.10809 1.90883,4.7058 1.66493,7.2704 0.0749,2.15505 -0.30421,4.33719 -2.1555,6.84505 -0.48554,-4.12894 -2.57742,-8.15053 -5.55831,-11.00564 -1.03443,-1.25839 -4.16666,-4.02745 -3.76987,-0.86081 0.21985,2.40559 1.44579,4.92019 2.94675,6.81964 1.25575,1.94922 2.41479,2.66154 2.97148,5.93206 -0.15009,2.00669 -1.06997,4.1366 -0.18923,6.107156 1.79151,1.85775 4.89254,1.41624 7.21261,0.99048 2.93837,-1.470166 3.46361,-2.127796 4.94185,-4.964036 0.4068,-1.40581 1.08271,-3.33741 1.42447,-5.7481 0.006,-3.81779 0.73375,-6.37556 -0.95802,-10.60162 -0.77085,-1.77746 -1.63682,-1.4164 -3.67621,-8.40831 3.74549,5.29007 5.21254,6.18985 6.91737,8.51716 1.97101,3.01345 3.35736,6.38276 3.16304,12.15911 -1.42414,-0.96181 -2.04019,-2.86707 -3.78689,-3.16038 0.0534,4.09995 -0.28912,7.10524 -2.0063,9.92439 -0.41824,1.638456 -3.64133,2.909706 -2.05219,4.434866 1.13126,0.48446 2.07357,1.23484 2.8788,2.7519 -1.03025,-0.0276 -2.27419,0.39406 -4.28831,0.19094 -2.35414,-1.94195 -6.75736,-1.99426 -3.67173,0.66245 -0.77668,0.67829 -1.74994,0.003 -2.20335,0.13102 -1.322,-0.0237 -2.87781,-0.008 -4.17911,-0.26152 z"
       id="switch1"
       inkscape:connector-curvature="0"
       sodipodi:nodetypes="cccccccccccccccccccccccccccccccccccc"
       inkscape:label="#path828" />
  </g>
</svg>
