<?xml version="1.0" encoding="UTF-8" standalone="no"?>
<!-- Created with Inkscape (http://www.inkscape.org/) -->

<svg
   xmlns:dc="http://purl.org/dc/elements/1.1/"
   xmlns:cc="http://creativecommons.org/ns#"
   xmlns:rdf="http://www.w3.org/1999/02/22-rdf-syntax-ns#"
   xmlns:svg="http://www.w3.org/2000/svg"
   xmlns="http://www.w3.org/2000/svg"
   xmlns:sodipodi="http://sodipodi.sourceforge.net/DTD/sodipodi-0.dtd"
   xmlns:inkscape="http://www.inkscape.org/namespaces/inkscape"
   width="49.117043mm"
   height="32.000031mm"
   viewBox="0 0 49.117043 32.000031"
   version="1.1"
   id="svg8"
   inkscape:version="0.92.4 (unknown)"
   sodipodi:docname="os.svg">
  <defs
     id="defs2" />
  <sodipodi:namedview
     id="base"
     pagecolor="#ffffff"
     bordercolor="#666666"
     borderopacity="1.0"
     inkscape:pageopacity="0.0"
     inkscape:pageshadow="2"
     inkscape:zoom="1.1684854"
     inkscape:cx="55.171443"
     inkscape:cy="113.09022"
     inkscape:document-units="mm"
     inkscape:current-layer="layer1"
     showgrid="false"
     inkscape:window-width="1609"
     inkscape:window-height="896"
     inkscape:window-x="0"
     inkscape:window-y="27"
     inkscape:window-maximized="0"
     fit-margin-top="0"
     fit-margin-left="0"
     fit-margin-right="0"
     fit-margin-bottom="0" />
  <metadata
     id="metadata5">
    <rdf:RDF>
      <cc:Work
         rdf:about="">
        <dc:format>image/svg+xml</dc:format>
        <dc:type
           rdf:resource="http://purl.org/dc/dcmitype/StillImage" />
        <dc:title></dc:title>
      </cc:Work>
    </rdf:RDF>
  </metadata>
  <g
     inkscape:label="Layer 1"
     inkscape:groupmode="layer"
     id="layer1"
     transform="translate(60.923361,-33.245263)">
    <path
       d="m -12.229507,54.096307 c -0.713387,0.499371 -2.282837,-0.428032 -3.138902,-0.927403 -0.784726,-0.49937 -1.426773,-0.356693 -1.426773,-0.356693 v 0 c 0,1.498112 -0.927402,4.066304 -1.355434,5.065046 v 0 l -0.428032,0.998741 c 1.498112,0.428032 3.780949,1.212757 3.780949,2.068822 0,0 0,0.07134 0,0.07134 0.07134,0.142678 0.07134,0.356694 0.07134,0.499371 0,1.284096 -1.284097,2.354176 -2.782208,2.354176 h -6.919852 c -0.998742,0 -1.854807,-0.428032 -2.354178,-1.07008 h -2.211497 c -0.499371,0.642048 -1.355435,1.07008 -2.354177,1.07008 h -6.848512 c -1.569451,0 -2.782208,-1.07008 -2.782208,-2.425515 0,-0.142677 0,-0.356693 0.07134,-0.49937 0,0 0,-0.07134 0,-0.07134 0,-0.856064 2.282837,-1.712128 3.780948,-2.14016 l -0.428032,-1.07008 v 0 c -0.428032,-0.713388 -1.355434,-3.495596 -1.355434,-4.92237 v 0.07134 c 0,0 -0.642048,-0.142677 -1.426774,0.356693 -0.784725,0.499371 -2.425516,1.498113 -3.067563,0.927403 -0.713386,-0.49937 -0.356693,-0.927403 0.142678,-1.569451 0.570708,-0.642048 5.778431,-4.993706 5.921108,-6.206464 0.142678,-1.212757 0.356694,-5.279061 0.499371,-5.707093 0.07134,-0.499371 1.783468,-5.849771 8.774657,-5.992449 v 0 c 0,0 -0.428032,0 -0.856064,0 0,0 0,0 0,0 0.142678,0 0.356694,0 0.499371,0 0.142677,0 0.356693,0 0.570709,0 0.214016,0 0.356694,0 0.57071,0 0.142677,0 0.285353,0 0.428031,0 0,0 0,0 0,0 -0.428031,0 -0.784725,0 -0.784725,0 v 0 c 7.347883,0.142678 8.703318,5.493078 8.845995,5.92111 0.142678,0.428032 0.428033,4.494336 0.499371,5.707093 0.142678,1.212758 5.3504,5.564417 5.92111,6.206465 0.570709,0.713386 0.856064,1.141419 0.142677,1.640788 z m -11.699542,-8.346624 c 0.927403,-0.428032 1.64079,-1.426774 1.64079,-2.496854 0,-1.498112 -1.212758,-2.782208 -2.639531,-2.782208 -1.070081,0 -1.997484,0.642048 -2.425515,1.64079 l -0.428032,-0.499371 -0.428032,0.499371 c -0.428032,-0.927403 -1.355435,-1.64079 -2.425515,-1.64079 -1.498113,0 -2.639531,1.212758 -2.639531,2.782208 0,1.141419 0.642049,2.14016 1.640789,2.496854 m 1.426774,0.356693 v 0 c 0,-0.07134 -0.07134,-0.214016 -0.07134,-0.285355 0,-0.07134 0,-0.07134 0,-0.142677 0,-0.142677 0.07134,-0.214016 0.142677,-0.356693 0.356693,-0.356694 0.856064,-0.642048 0.998741,-0.642048 h 1.141419 1.070079 c 0.142677,0 0.570709,0.356693 0.927403,0.642048 0.07134,0.07134 0.142678,0.214016 0.142678,0.285354 0,0.142678 0,0.214016 0,0.356694 m 0.07134,0.285354 v 0 c -0.07134,0.142678 -0.07134,0.214017 -0.07134,0.214017 0,0 -1.070081,1.426773 -1.426773,1.854805 -0.356694,0.428032 -0.642048,0.356693 -0.642048,0.356693 0,0 -0.356694,0.07134 -0.713387,-0.356693 -0.356693,-0.428032 -1.426773,-1.854805 -1.426773,-1.854805 0,0 0,-0.07134 -0.07134,-0.142678 v 0 c -3.566934,2.853547 -4.494336,9.488043 -4.28032,10.843478 0,0.142677 0.07134,0.356693 0.142677,0.570709 0.499371,-0.07134 0.142677,0.713387 0.856064,0.713387 2.639531,0 4.637014,0.998741 4.922368,2.282838 0.142678,0.214016 0.142678,0.428032 0.142678,0.642048 0,0.285354 -0.07134,0.49937 -0.214016,0.713386 h 1.426773 c -0.142677,-0.214016 -0.214016,-0.428032 -0.214016,-0.713386 0,-0.285355 0.142677,-0.57071 0.285355,-0.784726 0.499369,-1.212757 2.354176,-2.14016 4.851029,-2.14016 0.713386,0 0.356694,-0.784725 0.856063,-0.713387 0.07134,-0.214016 0.07134,-0.356693 0.142678,-0.570709 0.142677,-1.426773 -0.499371,-7.704576 -4.565674,-10.914817 z m -1.14142,-2.282837 c -0.285354,0 -0.570708,-0.499371 -0.570708,-1.141419 0,-0.642048 0.285354,-1.141418 0.570708,-1.141418 0.285355,0 0.570709,0.49937 0.570709,1.141418 0,0.642048 -0.214016,1.141419 -0.570709,1.141419 z m -1.854804,0 c -0.285355,0 -0.57071,-0.499371 -0.57071,-1.141419 0,-0.642048 0.285355,-1.141418 0.57071,-1.141418 0.285354,0 0.570709,0.49937 0.570709,1.141418 0,0.642048 -0.285355,1.141419 -0.570709,1.141419 z"
       id="switch2"
       inkscape:connector-curvature="0"
       style="stroke-width:0.71338671"
       inkscape:label="#linux" />
    <path
       d="m -27.630425,50.248263 c -0.04,-4.053 3.305,-5.996 3.454,-6.093 -1.88,-2.751 -4.808,-3.127 -5.851,-3.171 -2.492,-0.252 -4.862001,1.467 -6.127001,1.467 -1.260999,0 -3.212999,-1.43 -5.279999,-1.392 -2.716,0.04 -5.221,1.579 -6.619,4.012 -2.822,4.897 -0.723,12.151 2.028,16.123 1.344,1.944 2.947,4.127 5.051,4.049 2.026,-0.081 2.793,-1.311 5.241999,-1.311 2.449001,0 3.138001,1.311 5.283001,1.271 2.18,-0.041 3.562,-1.981 4.897,-3.931 1.543,-2.255 2.179,-4.439 2.216,-4.551 -0.048,-0.022 -4.252,-1.632 -4.294,-6.473 z m -4.029,-11.893 c 1.117,-1.355 1.871,-3.235 1.665,-5.11 -1.609,0.066 -3.559,1.072 -4.713001,2.423 -1.036,1.199 -1.942,3.113 -1.699,4.951 1.796,0.14 3.629001,-0.913 4.747001,-2.264 z"
       id="switch1"
       inkscape:connector-curvature="0"
       inkscape:label="#osx" />
    <path
       d="m -48.041361,49.241779 c -1.491,-0.766 -2.94,-1.155 -4.309,-1.155 -0.186,0 -0.373,0.006 -0.561,0.022 -1.746,0.145 -3.341,0.605 -4.367,0.963 -0.272,0.1 -0.551,0.205 -0.838,0.322 l -2.807,9.731 c 1.928,-0.713 3.634,-1.061 5.196,-1.061 2.526,0 4.36,0.944 5.875,1.916 0.718,-2.435 2.439,-8.315 2.953,-10.073 -0.373,-0.228 -0.752,-0.455 -1.141,-0.666 z m 3.629,2.474 -2.826,9.817 c 0.838,0.48 3.659,2.002 5.819,2.002 1.744,0 3.695,-0.447 5.964,-1.369 l 2.699,-9.437 c -1.832,0.591 -3.59,0.891 -5.233,0.891 -2.998,0 -5.097,-0.972 -6.422,-1.905 z m -7.36,-6.946 c 2.41,0.025 4.192,0.944 5.669,1.891 l 2.898,-9.917 c -0.611,-0.35 -2.213,-1.222 -3.371,-1.519 -0.762,-0.178 -1.563,-0.269 -2.413,-0.269 -1.619,0.03 -3.387,0.436 -5.403,1.244 l -2.764,9.706 c 2.025,-0.764 3.77,-1.136 5.378,-1.136 10e-4,0 0.004,0 0.004,0 z m 22.849,-5.334 c -1.838,0.713 -3.631,1.077 -5.345,1.077 -2.865,0 -4.978,-0.994 -6.347,-1.949 l -2.873,9.945 c 1.93,1.241 4.009,1.871 6.191,1.871 1.78,0 3.623,-0.427 5.483,-1.271 l -0.006,-0.069 0.117,-0.028 2.779,-9.576 z"
       id="switch0"
       inkscape:connector-curvature="0"
       inkscape:label="#windows" />
  </g>
</svg>
