<?xml version="1.0" encoding="UTF-8" standalone="no"?>
<!-- Created with Inkscape (http://www.inkscape.org/) -->

<svg
   xmlns:dc="http://purl.org/dc/elements/1.1/"
   xmlns:cc="http://creativecommons.org/ns#"
   xmlns:rdf="http://www.w3.org/1999/02/22-rdf-syntax-ns#"
   xmlns:svg="http://www.w3.org/2000/svg"
   xmlns="http://www.w3.org/2000/svg"
   xmlns:sodipodi="http://sodipodi.sourceforge.net/DTD/sodipodi-0.dtd"
   xmlns:inkscape="http://www.inkscape.org/namespaces/inkscape"
   width="15.518482mm"
   height="14.634951mm"
   viewBox="0 0 15.518482 14.634951"
   version="1.1"
   id="svg8"
   inkscape:version="0.92.4 (unknown)"
   sodipodi:docname="switch-yesno.svg">
  <defs
     id="defs2" />
  <sodipodi:namedview
     id="base"
     pagecolor="#ffffff"
     bordercolor="#666666"
     borderopacity="1.0"
     inkscape:pageopacity="0.0"
     inkscape:pageshadow="2"
     inkscape:zoom="3.3128531"
     inkscape:cx="154.60995"
     inkscape:cy="-6.554564"
     inkscape:document-units="mm"
     inkscape:current-layer="layer1"
     showgrid="false"
     inkscape:snap-global="false"
     fit-margin-top="0"
     fit-margin-left="0"
     fit-margin-right="0"
     fit-margin-bottom="0"
     inkscape:window-width="1920"
     inkscape:window-height="1016"
     inkscape:window-x="0"
     inkscape:window-y="27"
     inkscape:window-maximized="1" />
  <metadata
     id="metadata5">
    <rdf:RDF>
      <cc:Work
         rdf:about="">
        <dc:format>image/svg+xml</dc:format>
        <dc:type
           rdf:resource="http://purl.org/dc/dcmitype/StillImage" />
        <dc:title />
      </cc:Work>
    </rdf:RDF>
  </metadata>
  <g
     inkscape:label="Layer 1"
     inkscape:groupmode="layer"
     id="layer1"
     transform="translate(-48.949417,-152.50047)">
    <g
       id="switch3"
       transform="translate(-15.875,-1.6349504)"
       inkscape:label="#g934">
      <circle
         r="6.5"
         cy="160.63542"
         cx="71.324417"
         id="circle896"
         style="fill:#ffffff;fill-opacity:1;fill-rule:evenodd;stroke-width:0.24816383" />
      <circle
         r="6"
         cy="160.63542"
         cx="71.324417"
         id="path904"
         style="fill:#ff0000;fill-rule:evenodd;stroke-width:0.26282185" />
      <g
         transform="translate(9.2642518e-6,4.5175293e-4)"
         id="text912"
         style="font-style:normal;font-variant:normal;font-weight:normal;font-stretch:normal;font-size:8.46666622px;line-height:1.25;font-family:'经典繁毛楷';-inkscape-font-specification:'经典繁毛楷';letter-spacing:0px;word-spacing:0px;fill:#ffffff;fill-opacity:1;stroke:none;stroke-width:0.26458332"
         aria-label="错">
        <path
           inkscape:connector-curvature="0"
           id="path918"
           style="font-style:normal;font-variant:normal;font-weight:normal;font-stretch:normal;font-size:8.46666622px;font-family:'经典繁毛楷';-inkscape-font-specification:'经典繁毛楷';fill:#ffffff;fill-opacity:1;stroke-width:0.26458332"
           d="m 72.523721,156.88991 q 0.42168,0.16536 0.578776,0.25632 0.314193,0.17363 0.37207,0.40514 0.02481,0.11575 -0.01654,0.32246 -0.02481,0.14056 -0.08268,0.29766 0.115755,0 0.198437,0 0.165365,0 0.190169,0.008 0.07441,0.0165 0.214974,0.16537 0.132292,0.14056 0.148828,0.21497 -0.0248,0.1571 -0.181901,0.26459 -0.08268,0.0331 -0.338997,0.10748 -0.206706,0.0661 -0.338997,0.12403 -0.02481,0.10748 -0.05788,0.26458 l -0.05788,0.29766 q 0.181901,-0.0579 0.405144,-0.10749 0.148828,-0.0248 0.413411,-0.0579 0.09922,-0.0827 0.206706,-0.10749 0.09095,0 0.289388,0.14056 0.198437,0.14056 0.214974,0.22325 0.0248,0.0496 -0.03307,0.23151 -0.05788,0.17363 -0.09922,0.22324 -0.08268,0.0744 -0.314193,0.14056 l -0.347265,0.0827 q -1.231966,0.1819 -1.488281,0.23151 -0.380339,0.0744 -1.463477,0.37207 -0.14056,-0.0413 -0.297656,-0.35553 -0.165365,-0.32246 -0.09922,-0.44649 l 0.03307,-0.11575 q 0.04134,-0.0744 0.256315,-0.0662 0.289388,0.0165 0.314193,0.0165 0.14056,-0.0248 0.289388,-0.0744 0,-0.14056 0,-0.28111 -0.181901,-0.091 -0.314193,-0.40515 -0.08268,-0.21497 -0.132292,-0.51263 0.04961,0 0.165365,0.008 0.124023,0.008 0.173633,0.008 0,-0.17363 -0.03307,-0.5457 -0.03307,-0.42168 -0.06615,-0.54571 0.355534,0.0827 0.553971,0.19017 0.28112,0.1571 0.33073,0.41341 0.0248,0.13229 0.0248,0.28112 0.01654,-0.0165 0.223242,-0.0661 0.165365,-0.0413 0.165365,-0.091 0.02481,-0.28112 0.02481,-0.74414 0,-0.46303 -0.02481,-0.76895 z m -3.389974,0.65319 0.471289,0.14056 q 0.372071,0.12402 0.42168,0.1819 0.148828,0.14056 0.05788,0.33073 -0.02481,0.0496 -0.248047,0.339 -0.06615,0.11575 -0.289388,0.49609 -0.214974,0.38034 -0.28112,0.4961 0.04961,-0.0165 0.504362,-0.25632 0.330729,-0.1819 0.487825,-0.13229 0.06615,0.0248 0.231511,0.14056 0.190169,0.12402 0.190169,0.15709 0,0.0496 -0.08268,0.1571 -0.05788,0.0744 -0.124024,0.14056 -0.09922,0.0992 -0.157096,0.1819 -0.05788,0.0909 -0.09095,0.19844 0.157097,0.0579 0.19017,0.0744 0.09095,0.0496 0.132291,0.1323 0.02481,0.0331 0,0.16536 -0.0248,0.10749 -0.04961,0.17363 -0.03307,0.0661 -0.132292,0.16537 -0.09922,0.0992 -0.132291,0.14883 -0.04134,0.0661 -0.07441,0.35553 -0.04134,0.31419 -0.05788,0.3638 0.190169,-0.22324 0.239779,-0.31419 0.08268,-0.13229 0.148828,-0.38861 l 0.181901,0.11576 q 0.157096,0.0992 0.181901,0.14882 0.06615,0.1571 -0.132292,0.45476 -0.165364,0.25631 -0.363802,0.42995 -0.107487,0.0827 -0.181901,0.16536 v 0.10749 l 0.28112,-0.0331 q 0.23151,-0.0248 0.289388,0.0248 0.06615,0.1571 0.04134,0.31419 -0.04134,0.16537 -0.768945,0.47129 -0.239779,0.0909 -0.917774,0.339 -0.14056,0.0992 -0.305924,0.13229 -0.115755,-0.008 -0.272852,-0.23978 -0.07441,-0.10749 -0.198437,-0.33073 l -0.02481,-0.15709 q 0.181901,-0.0331 0.553971,-0.14056 0.28112,-0.0909 0.56224,-0.18191 0.04961,-0.0661 0.04961,-0.52089 l -0.01654,-0.55398 -0.239779,0.0165 q -0.181901,0.008 -0.23151,-0.0165 -0.107487,-0.0661 -0.198438,-0.22324 -0.09095,-0.14056 -0.132291,-0.28939 0.06615,-0.0331 0.181901,-0.0579 0.04134,-0.0331 0.297656,-0.21498 0.181901,-0.12402 0.289388,-0.23151 l 0.03307,-0.0992 q -0.07441,0 -0.173633,-0.0248 -0.09922,-0.0248 -0.165364,-0.0579 -0.04961,-0.0248 -0.165365,-0.13229 -0.107487,-0.11576 -0.148828,-0.13229 -0.107487,0.0992 -0.256315,0.21497 -0.190169,0.1571 -0.272852,0.1819 -0.157096,0.008 -0.305924,-0.0496 0.413411,-0.49609 0.669726,-1.05006 0.173633,-0.38034 0.42168,-1.17409 0,-0.11575 0.02481,-0.31419 0.0248,-0.19844 0.05788,-0.339 z m 1.182357,0.45475 q 0.05788,-0.0248 0.355534,0.0909 0.297656,0.10749 0.338997,0.16537 0.04961,0.10748 -0.124023,0.38034 -0.14056,0.2067 -0.289388,0.35553 -0.09095,-0.0909 -0.181901,-0.20671 -0.04961,-0.0744 -0.148828,-0.33072 -0.07441,-0.21498 -0.173633,-0.32247 0.09922,-0.0827 0.223242,-0.13229 z m 2.091862,1.39733 q -0.04134,0.0248 -0.165365,0.0579 -0.115755,0.0331 -0.157096,0.0579 0,0.0413 -0.01654,0.16536 -0.01654,0.12403 -0.01654,0.17364 0.14056,0.008 0.248047,-0.0579 0.02481,-0.0496 0.06615,-0.19017 0.04134,-0.13229 0.04134,-0.20671 z m 0.595312,1.28158 q 0.07441,0 0.338998,0.0992 0.272851,0.10748 0.330729,0.14883 0.124023,0.10748 0.107487,0.26458 l -0.08268,0.30592 q 0.07441,1.16582 0.08268,1.33946 0.0083,0.87643 -0.223242,1.20716 -0.09922,0.14883 -0.256315,0.23151 -0.132292,0.0661 -0.355534,0.10749 -0.02481,-0.0661 -0.07441,-0.34727 -0.04961,-0.28112 -0.07441,-0.35553 -0.157097,0.0248 -0.454753,0.0661 -0.289388,0.0413 -0.446484,0.0661 -0.04134,0.0744 -0.157097,0.19017 -0.132291,0.12402 -0.198437,0.14883 -0.07441,-0.11576 -0.173633,-0.29766 -0.107487,-0.20671 -0.14056,-0.29766 0.06615,-1.17409 0.06615,-1.19062 0.02481,-0.64492 -0.0083,-1.20716 0.04134,-0.0331 0.124023,-0.11576 0.124024,0.0661 0.289388,0.0909 0.132292,-0.0496 0.42168,-0.13229 0.28112,-0.0827 0.413411,-0.13229 0.04134,-0.0165 0.239779,-0.11576 0.157096,-0.0744 0.23151,-0.0744 z m -0.264583,0.71933 -0.438216,0.0992 q -0.297656,0.0662 -0.429948,0.12403 v 0.2067 0.22324 l 0.256315,-0.0661 q 0.239779,-0.0744 0.28112,-0.0496 0.107487,0.0248 0.248047,0.091 0.173632,0.0827 0.206705,0.14056 0.0083,0.0661 -0.05788,0.1571 -0.06615,0.0827 -0.14056,0.11575 -0.157096,0.0331 -0.396875,0.0909 -0.28112,0.0744 -0.363802,0.0909 -0.03307,0.1819 -0.04134,0.3638 l 0.0083,0.34727 q 0.173633,-0.0496 0.471289,-0.0992 0.355534,-0.0496 0.446484,-0.0331 0,-0.71107 -0.0083,-0.90951 -0.0083,-0.55397 -0.04134,-0.89297 z m -4.076237,0.22325 q 0.289388,0.0661 0.479557,0.2067 0.231511,0.17364 0.206706,0.40515 0,0.0744 -0.09922,0.29765 -0.09922,0.22324 -0.148828,0.22324 -0.07441,0 -0.148828,-0.10748 0,0 -0.09922,-0.16537 -0.03307,-0.0909 -0.107486,-0.42168 -0.08268,-0.34726 -0.08268,-0.43821 z" />
      </g>
    </g>
    <g
       id="switch1"
       inkscape:label="#g846">
      <circle
         style="fill:#ffffff;fill-opacity:1;fill-rule:evenodd;stroke-width:0.24816383"
         id="circle842"
         cx="55.449417"
         cy="160.63542"
         r="6.5" />
      <path
         inkscape:connector-curvature="0"
         id="path819"
         d="m 55.449418,154.63553 a 5.9999998,5.9999998 0 0 0 -6.00015,5.99963 5.9999998,5.9999998 0 0 0 6.00015,6.00015 5.9999998,5.9999998 0 0 0 6.000149,-6.00015 5.9999998,5.9999998 0 0 0 -6.000149,-5.99963 z m 2.192115,2.43913 c 0.09094,0 0.178369,0.047 0.263033,0.14107 0.06271,0.069 0.106688,0.19434 0.131773,0.37621 0.08153,-0.003 0.138141,0.003 0.1695,0.0191 0.10034,0.0376 0.172625,0.0785 0.216524,0.12247 0.0439,0.0408 0.06563,0.0939 0.06563,0.15968 0,0.12543 -0.02528,0.21338 -0.07545,0.26355 -0.755706,0.68672 -1.501733,1.52069 -2.238624,2.50217 0.464084,0.63968 0.928079,1.21336 1.392163,1.72135 0.05331,0.0564 0.0801,0.12263 0.0801,0.19792 0,0.15365 -0.047,0.2709 -0.141076,0.35243 -0.06271,0.0533 -0.152178,0.0831 -0.2682,0.0894 -0.0063,0.0533 -0.03155,0.13471 -0.07545,0.24443 -0.07526,0.18187 -0.16269,0.27285 -0.263033,0.27285 -0.112884,0 -0.216503,-0.0374 -0.310576,-0.11265 -0.02508,0.0565 -0.05945,0.10196 -0.103351,0.13642 -0.112885,0.0847 -0.211958,0.12713 -0.296622,0.12713 -0.07212,0 -0.14895,-0.044 -0.230478,-0.13178 -0.279078,-0.29789 -0.608116,-0.74621 -0.987537,-1.34514 -0.721214,0.81842 -1.220091,1.4391 -1.496033,1.86242 -0.05331,0.0815 -0.112948,0.12248 -0.1788,0.12248 h -0.0093 c -0.05645,0 -0.11103,-0.0566 -0.164333,-0.1695 -0.04703,-0.0972 -0.07382,-0.16595 -0.0801,-0.20671 -0.06271,0.0376 -0.122357,0.0563 -0.1788,0.0563 -0.07839,0 -0.162799,-0.047 -0.253733,-0.14108 -0.112885,-0.10974 -0.169498,-0.19164 -0.169498,-0.24494 0,-0.0847 0.047,-0.19738 0.141076,-0.33848 -0.02822,-0.009 -0.05652,-0.0346 -0.08475,-0.0755 -0.05645,-0.0753 -0.08475,-0.15057 -0.08475,-0.22583 0,-0.0659 0.03791,-0.14723 0.11317,-0.24443 0.407641,-0.55188 0.918641,-1.15992 1.533239,-1.82469 -0.382555,-0.59265 -0.729295,-1.30786 -1.03973,-2.14509 -0.06898,-0.19128 -0.103352,-0.33079 -0.103352,-0.41858 0,-0.0815 0.0364,-0.1993 0.108522,-0.35295 0.05016,-0.10035 0.109291,-0.15038 0.178281,-0.15038 0.08153,0 0.197787,0.0612 0.3483,0.18345 0.0031,-0.0439 0.02183,-0.10509 0.05633,-0.18345 0.07212,-0.15678 0.134794,-0.23512 0.188102,-0.23512 0.134835,0 0.222785,0.0409 0.263549,0.12247 0.332386,0.6146 0.733706,1.21355 1.204061,1.79679 0.72435,-0.82783 1.476952,-1.58398 2.257745,-2.26756 0.03763,-0.0376 0.07857,-0.0563 0.122473,-0.0563 z"
         style="fill:#e70000;fill-opacity:1;fill-rule:evenodd;stroke-width:0.25384259" />
    </g>
    <g
       id="switch2"
       transform="translate(-26.458332,-1.6349504)"
       inkscape:label="#g928">
      <circle
         style="fill:#ffffff;fill-opacity:1;fill-rule:evenodd;stroke-width:0.24816383"
         id="circle890"
         cx="84.426231"
         cy="160.63542"
         r="6.5" />
      <circle
         style="fill:#00d710;fill-opacity:1;fill-rule:evenodd;stroke-width:0.26282185"
         id="circle916"
         cx="84.426231"
         cy="160.63542"
         r="6" />
      <g
         transform="translate(-2.8469749,0.25516163)"
         id="text908"
         style="font-style:normal;font-variant:normal;font-weight:normal;font-stretch:normal;font-size:8.46666622px;line-height:1.25;font-family:'经典繁毛楷';-inkscape-font-specification:'经典繁毛楷';letter-spacing:0px;word-spacing:0px;fill:#ffffff;fill-opacity:1;stroke:none;stroke-width:0.26458332"
         aria-label="对">
        <path
           inkscape:connector-curvature="0"
           id="path921"
           style="font-style:normal;font-variant:normal;font-weight:normal;font-stretch:normal;font-size:8.46666622px;font-family:'经典繁毛楷';-inkscape-font-specification:'经典繁毛楷';fill:#ffffff;fill-opacity:1;stroke-width:0.26458332"
           d="m 86.248765,156.55112 q 0.272852,0.0827 0.512631,0.25631 0.297656,0.21497 0.297656,0.43822 0,0.0413 -0.07441,0.31419 -0.08268,0.27285 -0.08268,0.32246 0.206706,-0.27285 0.264584,-0.3638 0.157096,-0.23978 0.157096,-0.3638 0.256315,0.0496 0.454753,0.17363 0.239778,0.14883 0.214974,0.32246 -0.03307,0.19017 -0.454753,0.51263 -0.305924,0.23151 -0.603581,0.39687 l -0.03307,0.0248 q 0.08268,-0.0248 0.372071,-0.0413 0.305924,-0.0248 0.363802,0.008 0.07441,0.0165 0.132291,0.1819 0.05788,0.16536 0.02481,0.23978 -0.02481,0.0827 -0.405143,0.19843 -0.248047,0.0744 -0.51263,0.12403 0.06615,0.14883 0.06615,0.21497 0,0.0661 -0.06615,0.19844 0.14056,0.10749 0.256315,0.19844 0.04961,0.12402 -0.289388,0.37207 -0.214974,0.16536 -0.471289,0.29765 0.01654,0.12403 0.03307,0.25632 0.09095,-0.0496 0.173633,-0.0744 0.124023,-0.0413 0.190169,-0.0165 0.124023,0.0331 0.198437,0.22324 0.07441,0.1819 0.03307,0.30592 -0.04961,0.14056 -0.256315,0.25632 -0.28112,0.14056 -0.347265,0.21497 -0.03307,0.1571 0.0083,0.32246 0.181901,-0.0661 0.463021,-0.11575 0.289388,-0.0661 0.454752,-0.0661 0.07441,0.11576 0.09922,0.21498 0.03307,0.12402 -0.01654,0.21497 -0.107487,0.23978 -0.926041,0.7028 -0.479557,0.28112 -1.07487,0.57051 -0.124023,0 -0.37207,-0.3638 -0.223242,-0.33073 -0.272852,-0.48783 0.09095,0 0.520899,-0.1571 0.454752,-0.16536 0.504362,-0.23977 0.0248,-0.11576 0,-0.20671 -0.33073,-0.0413 -0.496094,-0.14056 -0.206706,-0.11576 -0.297656,-0.37207 l 0.553971,-0.26458 q 0.206706,-0.1323 0.206706,-0.44649 -0.148828,0.0579 -0.198438,0.0661 -0.124023,0.0165 -0.223242,-0.0331 -0.115755,-0.0496 -0.239779,-0.23977 -0.09922,-0.1571 -0.148828,-0.29766 0.04961,-0.0248 0.256315,-0.11576 0.214974,-0.091 0.264584,-0.11575 -0.04961,-0.0909 -0.08268,-0.1571 -0.04134,-0.10748 -0.04134,-0.19843 l -0.752409,0.34726 q -0.479557,0.1571 -0.620117,-0.0744 -0.04134,-0.0744 -0.115755,-0.30593 -0.08268,-0.24804 -0.08268,-0.31419 0.380338,-0.12402 0.876432,-0.26458 0.603581,-0.17364 0.876432,-0.23151 v -0.30593 q 0,-0.15709 0.01654,-0.29765 -0.04134,0 -0.223242,0.0827 -0.19017,0.0827 -0.223243,0.0827 -0.124023,0 -0.223242,-0.26458 -0.04134,-0.12403 -0.107487,-0.44649 0.09095,0.0331 0.305925,-0.0165 0.157096,-0.0248 0.297656,-0.0827 -0.107487,-0.1819 -0.124024,-0.31419 -0.01654,-0.14883 0.07442,-0.31419 0.248046,0.12402 0.396875,0.2067 0.272851,0.14056 0.388606,0.23151 l 0.09922,-0.0496 q 0.05788,-0.0331 0.04134,-0.17364 l -0.04134,-0.19844 q 0,-0.1819 0.0083,-0.28938 0.0083,-0.19017 0.04134,-0.27285 z m 3.398242,0.64492 q 0.239779,0.13229 0.248047,0.62011 l -0.04134,0.76895 -0.0083,0.0744 q 0.07441,-0.0827 0.190169,-0.13229 0.148828,-0.0579 0.463021,0.16537 0.322461,0.22324 0.272852,0.38033 -0.04134,0.12403 -0.413412,0.26459 -0.148828,0.0496 -0.504362,0.14056 0,0.66146 0.02481,1.34772 0.05788,1.28984 0.05788,1.33945 -0.107487,0.68627 -0.148828,0.8599 -0.115755,0.49609 -0.347265,0.76894 -0.165365,0.19844 -0.471289,0.339 -0.338998,0.14883 -0.479558,0.008 -0.04961,-0.0413 -0.256315,-0.40514 -0.214974,-0.37207 -0.23151,-0.38861 0.04134,0 0.28112,0.0579 0.173632,0.0413 0.272851,-0.0165 0.08268,-0.0579 0.132292,-0.20671 0.04134,-0.13229 0.04134,-0.26458 0.03307,-0.44648 0.03307,-1.52962 0,0 0,-1.55443 -0.107487,0.0496 -0.272852,0.10749 -0.190169,0.0661 -0.289388,0.10749 -0.181901,0.0331 -0.37207,-0.20671 -0.157096,-0.19844 -0.239779,-0.44648 0.157097,-0.0496 0.611849,-0.16537 0.446485,-0.12402 0.603581,-0.17363 l -0.04134,-0.89297 q -0.02481,-0.43822 -0.08268,-0.89297 -0.09095,-0.12402 -0.132292,-0.28112 0.272852,-0.0661 0.578776,-0.008 0.272852,0.0579 0.520898,0.21498 z m -3.431315,0.5457 q -0.07441,0.091 -0.124023,0.1571 -0.09922,0.11575 -0.107487,0.15709 -0.05788,0.11576 -0.04961,0.339 0.0083,0.19017 0.05788,0.3638 0.107487,-0.0992 0.206706,-0.23151 0,-0.0744 0.0083,-0.39687 0.0083,-0.32246 0.0083,-0.38861 z m 0.0083,1.80247 q -0.132292,0.0331 -0.264584,0.11576 0,0.0413 0.0083,0.14883 0.01654,0.10748 0.01654,0.1819 0.173633,-0.14056 0.206706,-0.1819 0.03307,-0.0579 0.03307,-0.26459 z m 1.041797,1.00046 q 0.429947,0.0579 0.636653,0.12402 0.37207,0.12403 0.413412,0.34727 0.03307,0.16536 -0.157097,0.44648 -0.190169,0.28112 -0.338997,0.25632 -0.04961,-0.0165 -0.148828,-0.10749 -0.09922,-0.0827 -0.14056,-0.13229 l -0.132292,-0.339 q -0.08268,-0.2067 -0.132291,-0.35553 -0.02481,-0.11576 0,-0.23978 z" />
      </g>
    </g>
    <g
       id="switch0"
       transform="translate(-13.356518)"
       inkscape:label="#g850">
      <circle
         r="6.5"
         cy="160.63542"
         cx="71.324417"
         id="path840"
         style="fill:#ffffff;fill-opacity:1;fill-rule:evenodd;stroke-width:0.24816383" />
      <path
         inkscape:connector-curvature="0"
         id="circle825"
         d="m 71.324417,154.63553 a 5.9999998,5.9999998 0 0 0 -6.000149,5.99963 5.9999998,5.9999998 0 0 0 6.000149,6.00015 5.9999998,5.9999998 0 0 0 6.00015,-6.00015 5.9999998,5.9999998 0 0 0 -6.00015,-5.99963 z m 2.55695,3.12177 c 0.437528,0 0.701077,0.0133 0.790649,0.0408 0.03789,0.0103 0.05685,0.0534 0.05685,0.12919 0,0.062 -0.03962,0.13951 -0.118856,0.23254 -2.215197,2.54248 -3.534669,4.19613 -3.958415,4.96094 -0.144693,0.26183 -0.478869,0.39274 -1.002522,0.39274 -0.172254,0 -0.353124,-0.0448 -0.542602,-0.13436 -0.07924,-0.0413 -0.217043,-0.30488 -0.413412,-0.79065 -0.248047,-0.61322 -0.37207,-1.15065 -0.37207,-1.6123 0,-0.16881 0.120579,-0.30833 0.361736,-0.41858 0.330729,-0.15158 0.578776,-0.22738 0.74414,-0.22738 l 0.01033,5.2e-4 c 0.134358,0 0.235987,0.11025 0.30489,0.33073 0.137805,0.41341 0.23599,0.62012 0.294555,0.62012 0.04479,0 0.0913,-0.035 0.139528,-0.10387 0.968071,-1.42283 1.863797,-2.43519 2.687175,-3.03806 0.347953,-0.25494 0.687295,-0.38241 1.018024,-0.38241 z"
         style="fill:#00d710;fill-opacity:1;fill-rule:evenodd;stroke-width:0.25384259" />
    </g>
    <path
       inkscape:connector-curvature="0"
       id="switch5"
       d="m 55.886398,165.78344 c -0.22952,-0.075 -0.398545,-0.20625 -0.481975,-0.37419 -0.0776,-0.1562 -0.09046,-0.30063 -0.09458,-1.06228 -0.0049,-0.9138 -0.06244,-1.36945 -0.264541,-2.09655 -0.103645,-0.37288 -0.598677,-1.81303 -0.636054,-1.8504 -0.01181,-0.0118 -0.05181,0.003 -0.08887,0.0344 -0.155654,0.12918 -0.675353,0.29118 -0.932663,0.29073 -0.673801,-0.001 -1.167747,-0.50793 -1.487424,-1.52598 -0.09856,-0.31388 -0.111278,-0.44529 -0.108188,-1.11806 0.0029,-0.62738 0.0218,-0.82886 0.106822,-1.13778 0.327643,-1.19038 1.056138,-1.93557 1.892204,-1.93557 0.310572,0 0.686329,0.13369 0.9331,0.33201 0.09888,0.0795 0.203094,0.14447 0.231585,0.14447 0.104143,0 0.634522,-0.29638 1.204267,-0.67295 1.546563,-1.02222 2.575834,-1.24522 3.306012,-0.71628 0.24072,0.17438 0.495395,0.56753 0.528758,0.81627 0.02456,0.18309 0.04005,0.19805 0.368834,0.35619 0.396617,0.19076 0.707766,0.497 0.78403,0.77166 0.06533,0.23528 0.06568,0.58152 8.01e-4,0.76769 -0.04576,0.13127 -0.03444,0.16695 0.115086,0.36284 0.373517,0.48934 0.466602,1.09287 0.238999,1.5496 l -0.125505,0.25185 0.111464,0.19826 c 0.08705,0.15483 0.110523,0.2661 0.107168,0.50797 -0.01226,0.88415 -0.662967,1.5503 -1.746331,1.78778 -0.28355,0.0622 -0.512215,0.0762 -0.952976,0.0586 -0.665101,-0.0265 -1.087015,-0.13809 -1.411656,-0.37326 -0.169426,-0.12273 -0.214431,-0.13702 -0.264287,-0.0839 -0.0845,0.09 -0.261958,0.59087 -0.261958,0.73932 0,0.0681 0.08906,0.48002 0.19791,0.91545 0.286561,1.14632 0.266799,1.75359 -0.07929,2.43657 -0.12035,0.2375 -0.432322,0.54749 -0.624527,0.62056 -0.13275,0.0505 -0.419146,0.0529 -0.566193,0.005 z m 0.41823,-0.39106 c 0.241613,-0.0671 0.482887,-0.28764 0.583975,-0.5338 0.140244,-0.3415 0.148841,-1.07133 0.02103,-1.78529 -0.08311,-0.46425 -0.131508,-0.62676 -0.204223,-0.68573 -0.08446,-0.0685 -0.09199,-0.11457 -0.06624,-0.40501 0.06123,-0.69044 0.320683,-1.35614 0.661173,-1.69643 0.438639,-0.4384 0.96745,-0.54965 1.776416,-0.37374 0.492322,0.10706 0.597716,0.15594 0.597716,0.27727 0,0.0609 -0.05926,0.0665 -0.393103,0.0368 -0.938969,-0.0836 -1.348715,-0.001 -1.690524,0.34086 -0.115555,0.11555 -0.202179,0.23598 -0.192498,0.26762 0.03451,0.11275 0.496395,0.28633 0.941958,0.35398 1.043144,0.15838 2.043186,-0.10698 2.56826,-0.68149 0.354785,-0.3882 0.472852,-0.84693 0.307604,-1.19517 -0.110779,-0.23345 -0.395566,-0.43363 -1.211542,-0.85162 -0.40737,-0.20868 -0.711346,-0.39306 -0.711346,-0.43149 0,-0.10255 0.09924,-0.0834 0.647808,0.12523 0.540198,0.20542 0.915354,0.38239 1.126786,0.53154 0.07189,0.0507 0.152297,0.0789 0.178684,0.0626 0.02643,-0.0163 0.04797,-0.22165 0.04797,-0.45727 0,-0.35743 -0.01885,-0.46481 -0.114857,-0.65427 -0.223994,-0.44203 -0.660112,-0.74066 -1.470188,-1.00671 -0.334455,-0.10985 -0.486266,-0.21341 -0.434834,-0.29663 0.05935,-0.096 1.008816,0.11967 1.400599,0.31821 0.124566,0.0631 0.239816,0.10143 0.256111,0.0851 0.04521,-0.0452 0.03487,-0.30269 -0.02012,-0.50067 -0.07673,-0.27628 -0.26144,-0.45286 -0.682112,-0.65208 -0.350326,-0.1659 -0.509224,-0.22333 -1.218264,-0.44033 -0.116017,-0.0355 -0.218907,-0.0891 -0.228643,-0.11914 -0.02517,-0.0776 0.38064,-0.10673 0.715986,-0.0514 0.152022,0.0251 0.290268,0.0317 0.307213,0.0148 0.04163,-0.0416 -0.110823,-0.30137 -0.292453,-0.49827 -0.220864,-0.23943 -0.471405,-0.33737 -0.866214,-0.33859 -0.574766,-0.002 -1.030939,0.17057 -2.214179,0.83656 -0.979831,0.55151 -1.106678,0.59949 -1.618288,0.61214 -0.305503,0.008 -0.452953,0.0349 -0.600121,0.11118 -0.596874,0.3095 -0.92276,1.19057 -0.924016,2.49818 -6.87e-4,0.70751 0.0661,1.10359 0.254709,1.51068 0.161422,0.34841 0.301089,0.44231 0.674198,0.45323 0.168183,0.005 0.312736,0.0187 0.321229,0.0306 0.197445,0.27654 0.320283,0.52992 0.53422,1.10193 0.436825,1.16797 0.456655,1.2789 0.445411,2.49163 -0.01078,1.1625 0.01626,1.32474 0.254183,1.52494 0.157153,0.13223 0.258662,0.14565 0.530515,0.0702 z m -2.444617,-4.96453 c -7.44e-4,-0.0328 -0.07844,-0.11317 -0.172717,-0.17868 -0.271943,-0.189 -0.402858,-0.33941 -0.525233,-0.60348 -0.249807,-0.53906 -0.318393,-1.35454 -0.183683,-2.18398 0.172113,-1.05972 0.649693,-1.84963 1.221955,-2.02108 0.191984,-0.0575 0.199679,-0.0661 0.114867,-0.12812 -0.122002,-0.0892 -0.528006,-0.0841 -0.804447,0.0101 -0.280063,0.0954 -0.670704,0.44819 -0.877895,0.79277 -0.195622,0.32534 -0.423117,0.98694 -0.49318,1.43426 -0.123934,0.79126 0.05501,1.77213 0.428807,2.35047 0.281915,0.43617 0.528777,0.57422 1.042682,0.58304 0.171289,0.003 0.249742,-0.0145 0.248844,-0.0553 z"
       style="fill:#838383;stroke-width:0.04764883"
       sodipodi:nodetypes="ccccccccccscscccccccccccccccssscccccccsccscccccccscccsccccccccccccccccccccssscccccsccccscccc"
       inkscape:label="#path848" />
    <path
       sodipodi:nodetypes="ccscccccccccccscsccccccccccsccccccccsccccccccccccscsccscccssccccccccccsccccccccccccccccccccccccccsccccccccscccccccscccccscccccccccccccccccccccsccscccccsscc"
       style="fill:#838383;stroke-width:0.0480957"
       d="m 56.953452,165.78476 c -0.700297,-0.11399 -1.313356,-0.43974 -1.869897,-0.99358 -0.221636,-0.22055 -0.410379,-0.40102 -0.419432,-0.40102 -0.0091,0 -0.116329,0.0703 -0.238395,0.15632 -0.193314,0.13615 -0.26051,0.1562 -0.521027,0.15553 -0.811357,-0.002 -1.692242,-0.84696 -1.980005,-1.89901 -0.0398,-0.14548 -0.08549,-0.49216 -0.101539,-0.77039 -0.09028,-1.56486 0.73834,-2.98104 1.952679,-3.33729 0.326181,-0.0957 0.59361,-0.0972 0.897446,-0.005 0.129853,0.0394 0.259286,0.0719 0.287626,0.0721 0.06945,5.8e-4 0.535888,-0.97292 0.623096,-1.30061 0.09485,-0.35642 0.08682,-0.70314 -0.02185,-0.94244 -0.163049,-0.35908 -0.206355,-0.68304 -0.188712,-1.4117 0.02026,-0.83654 0.08388,-1.01379 0.428488,-1.19368 0.563012,-0.29391 1.217888,0.10415 1.568193,0.9532 0.165859,0.40201 0.171634,0.89274 0.01555,1.32264 -0.188902,0.52032 -0.109808,1.78248 0.126515,2.0188 0.06404,0.064 0.221552,0.0742 1.044884,0.0677 1.07074,-0.009 1.40108,0.0406 1.89544,0.28227 0.37928,0.1854 0.74507,0.53413 0.88181,0.8407 0.14467,0.32433 0.15554,0.84559 0.0264,1.26831 l -0.0896,0.29341 0.1252,0.1892 c 0.17683,0.26721 0.24753,0.65768 0.17837,0.9851 -0.0798,0.37787 -0.27863,0.75676 -0.45262,0.86257 -0.14642,0.089 -0.14893,0.097 -0.15341,0.48891 -0.007,0.59694 -0.18643,0.88928 -0.67263,1.09471 -0.26868,0.11353 -0.36072,0.20776 -0.36072,0.3693 0,0.14366 -0.24371,0.41715 -0.46554,0.52241 -0.097,0.046 -0.38366,0.13631 -0.63698,0.20061 -0.514555,0.13062 -1.427472,0.18452 -1.87941,0.11096 z m 0.895557,-0.29776 c 0.02168,-0.0351 -0.01937,-0.096 -0.105328,-0.15632 -0.433485,-0.30423 -0.728137,-0.80416 -0.673895,-1.14337 0.02752,-0.172 0.01012,-0.22478 -0.150846,-0.45852 -0.157662,-0.22892 -0.181919,-0.30024 -0.181919,-0.53484 0,-0.16274 0.03336,-0.33557 0.08363,-0.43333 l 0.08363,-0.16262 -0.167918,-0.22875 c -0.09235,-0.12581 -0.181138,-0.29487 -0.197301,-0.37569 -0.04815,-0.24066 0.0714,-0.62615 0.258301,-0.83303 0.15017,-0.16622 0.162206,-0.19926 0.115704,-0.3176 -0.10335,-0.26301 -0.113843,-0.48208 -0.03596,-0.75007 0.190457,-0.65515 0.667843,-0.79857 1.529998,-0.45967 l 0.227227,0.0893 0.13349,-0.27536 c 0.0958,-0.19774 0.16399,-0.2797 0.2417,-0.29074 0.11164,-0.0158 0.15553,0.10069 0.0601,0.15966 -0.0265,0.0164 -0.0481,0.058 -0.0481,0.0924 0,0.0422 0.0983,0.0709 0.3006,0.0878 0.32554,0.0271 0.56513,0.11402 0.56513,0.20494 0,0.0415 -0.12817,0.0518 -0.46894,0.0377 -0.52748,-0.0218 -0.66039,0.0199 -0.52841,0.16573 0.0748,0.0827 0.22782,0.4505 0.22782,0.54767 0,0.10411 -0.10311,0.0258 -0.17998,-0.13662 -0.15069,-0.31845 -0.492665,-0.48222 -1.10412,-0.52875 -0.337095,-0.0257 -0.350097,-0.0225 -0.492983,0.12041 -0.132417,0.13242 -0.146753,0.17623 -0.146753,0.44846 0,0.42774 0.117323,0.57822 0.73471,0.94235 0.270453,0.15951 0.562197,0.30311 0.648326,0.31911 0.29726,0.0552 1.48328,-0.21883 1.92731,-0.44535 0.25131,-0.12821 0.41471,-0.37233 0.51686,-0.77218 0.13908,-0.54438 0.0424,-0.90172 -0.34621,-1.27939 -0.27922,-0.27137 -0.63441,-0.43494 -1.13079,-0.52075 -0.41419,-0.0716 -1.697984,-0.12017 -1.751873,-0.0663 -0.04862,0.0486 0.355536,0.28136 0.672866,0.38752 0.489037,0.16363 0.475197,0.30223 -0.02596,0.26021 -0.40783,-0.0342 -0.691533,-0.15674 -0.981421,-0.42395 -0.386874,-0.35661 -0.576701,-0.88822 -0.544531,-1.52497 0.0159,-0.31456 0.01382,-0.32091 -0.104027,-0.32091 -0.162338,0 -0.136082,-0.0869 0.116069,-0.38395 0.277876,-0.32741 0.341043,-0.58804 0.249231,-1.02836 -0.183942,-0.88221 -0.822371,-1.52016 -1.223322,-1.22241 -0.177548,0.13184 -0.247202,0.44859 -0.25152,1.14376 -0.004,0.62614 0.07823,1.05495 0.24626,1.28598 0.09149,0.12579 0.09279,0.15161 0.02925,0.57715 -0.07352,0.49217 -0.208644,0.8669 -0.585577,1.6238 -0.629607,1.26432 -0.669994,1.86659 -0.167698,2.50079 0.299715,0.37842 0.06935,0.39173 -0.336516,0.0194 l -0.120239,-0.11029 -0.0017,0.64085 -0.0017,0.64086 0.221199,-0.18651 c 0.346912,-0.29253 0.443314,-0.23868 0.192522,0.10753 -0.797602,1.10105 -0.165415,2.19403 1.634543,2.82592 0.550398,0.19322 0.971472,0.25043 1.038999,0.14117 z m 1.515103,-0.36261 c 0.21291,-0.0944 0.36754,-0.23256 0.31692,-0.28317 -0.0152,-0.0152 -0.13836,-0.004 -0.27375,0.0252 -0.56101,0.12031 -0.925214,0.039 -1.568118,-0.34993 -0.235842,-0.14269 -0.436387,-0.23919 -0.44566,-0.21446 -0.05151,0.13743 0.490965,0.70016 0.834483,0.86564 0.245369,0.11821 0.821355,0.0963 1.136125,-0.0433 z m -5.126527,-0.70772 c 0.09173,-0.0383 0.16679,-0.089 0.16679,-0.11263 0,-0.0236 -0.09001,-0.0699 -0.200023,-0.10287 -0.628328,-0.18824 -1.119157,-0.8221 -1.313359,-1.69605 -0.153612,-0.69128 -0.06395,-1.1771 0.39774,-2.15499 0.04371,-0.0926 0.242273,-0.33188 0.441247,-0.53175 0.349114,-0.3507 0.531903,-0.45884 0.922091,-0.54555 0.139144,-0.0309 0.272661,-0.29732 0.190296,-0.37968 -0.02433,-0.0243 -0.225322,-0.0365 -0.446658,-0.0271 -0.538414,0.023 -0.911581,0.20207 -1.331173,0.63903 -0.343761,0.358 -0.694579,1.03139 -0.78218,1.5014 -0.08077,0.43335 -0.06966,1.28925 0.02161,1.66424 0.226445,0.93046 0.972492,1.71165 1.729216,1.81069 0.02069,0.003 0.112672,-0.0264 0.204407,-0.0648 z m 5.120647,0.0196 c 0.42611,-0.0672 1.02909,-0.27104 1.12927,-0.38174 0.0453,-0.05 0.11173,-0.1735 0.14773,-0.27444 0.0644,-0.1806 0.094,-0.54427 0.0443,-0.54427 -0.014,0 -0.30075,0.0571 -0.63726,0.12678 -0.48421,0.10032 -0.75807,0.12791 -1.31272,0.13226 l -0.700876,0.006 -0.208985,-0.14429 c -0.114941,-0.0794 -0.311341,-0.23627 -0.436445,-0.34869 -0.125098,-0.11243 -0.250919,-0.20441 -0.279593,-0.20441 -0.08589,0 -0.118456,0.2366 -0.05961,0.433 0.09677,0.32299 0.789044,0.86793 1.445874,1.13815 0.300905,0.1238 0.422445,0.1325 0.868365,0.0622 z m -4.901017,-0.80707 c -0.0076,-0.23462 0.01725,-0.40214 0.08687,-0.58536 0.08393,-0.22088 0.08787,-0.26397 0.02829,-0.3089 -0.05679,-0.0428 -0.06167,-0.12573 -0.02716,-0.46103 0.02314,-0.22485 0.03382,-0.42226 0.02374,-0.43871 -0.01008,-0.0164 -0.03037,-0.41683 -0.04508,-0.88977 -0.02073,-0.66656 -0.01106,-0.91917 0.04299,-1.12364 0.03836,-0.14508 0.05928,-0.28069 0.0465,-0.30136 -0.04055,-0.0656 -0.306475,0.12304 -0.564197,0.40027 -0.238086,0.25611 -0.560511,0.79172 -0.692754,1.15082 -0.0341,0.0926 -0.07415,0.36312 -0.08901,0.6012 -0.04783,0.76641 0.167395,1.44937 0.603828,1.91608 0.19903,0.21284 0.529053,0.43498 0.576906,0.38832 0.01085,-0.0106 0.01493,-0.16714 0.0091,-0.34792 z m 4.934627,-0.61147 c 0.64939,-0.0845 1.29996,-0.22874 1.50168,-0.33305 0.21924,-0.11338 0.38854,-0.50469 0.38854,-0.89804 0,-0.17825 -0.0219,-0.38164 -0.0486,-0.45198 l -0.0486,-0.1279 -0.16915,0.14852 c -0.093,0.0817 -0.25277,0.19117 -0.35498,0.24331 -0.34449,0.17575 -1.55524,0.43599 -2.01817,0.43378 -0.335029,-0.002 -0.750345,-0.21778 -1.316878,-0.68548 -0.129711,-0.10709 -0.259169,-0.17748 -0.298588,-0.16235 -0.09351,0.0359 -0.229958,0.51954 -0.1907,0.67596 0.04162,0.16587 0.468367,0.59379 0.943371,0.94599 0.381631,0.28296 0.386868,0.28505 0.714488,0.28505 0.181527,0 0.585457,-0.0332 0.897627,-0.0738 z"
       id="switch4"
       inkscape:connector-curvature="0"
       inkscape:label="#path868" />
  </g>
</svg>
