<?xml version="1.0" encoding="UTF-8" standalone="no"?>
<!DOCTYPE svg PUBLIC "-//W3C//DTD SVG 1.1//EN"
 "http://www.w3.org/Graphics/SVG/1.1/DTD/svg11.dtd">
<!-- Generated by graphviz version 2.36.0 (20140111.2315)
 -->
<!-- Title: G Pages: 1 -->
<svg width="285pt" height="417pt"
 viewBox="0.00 0.00 285.00 417.00" xmlns="http://www.w3.org/2000/svg" xmlns:xlink="http://www.w3.org/1999/xlink">
<g id="graph0" class="graph" transform="scale(1 1) rotate(0) translate(4 413)">
<title>G</title>
<!-- Start -->
<g id="node1" class="node"><title>Start</title>
<ellipse fill="#eecc80" stroke="#eecc80" cx="121" cy="-387" rx="44.2863" ry="18"/>
<ellipse fill="none" stroke="#eecc80" cx="121" cy="-387" rx="48.2945" ry="22"/>
<text text-anchor="middle" x="121" y="-383.3" font-family="Vera Sans YuanTi" font-size="14.00">Start</text>
</g>
<!-- Initialization -->
<g id="node2" class="node"><title>Initialization</title>
<path fill="#eecc80" stroke="#eecc80" d="M168.266,-323C168.266,-323 73.7343,-323 73.7343,-323 67.7343,-323 61.7343,-317 61.7343,-311 61.7343,-311 61.7343,-299 61.7343,-299 61.7343,-293 67.7343,-287 73.7343,-287 73.7343,-287 168.266,-287 168.266,-287 174.266,-287 180.266,-293 180.266,-299 180.266,-299 180.266,-311 180.266,-311 180.266,-317 174.266,-323 168.266,-323"/>
<path fill="none" stroke="#eecc80" d="M172.25,-327C172.25,-327 69.75,-327 69.75,-327 63.75,-327 57.75,-321 57.75,-315 57.75,-315 57.75,-295 57.75,-295 57.75,-289 63.75,-283 69.75,-283 69.75,-283 172.25,-283 172.25,-283 178.25,-283 184.25,-289 184.25,-295 184.25,-295 184.25,-315 184.25,-315 184.25,-321 178.25,-327 172.25,-327"/>
<text text-anchor="middle" x="121" y="-301.3" font-family="Vera Sans YuanTi" font-size="14.00">Initialization</text>
</g>
<!-- Start&#45;&gt;Initialization -->
<g id="edge1" class="edge"><title>Start&#45;&gt;Initialization</title>
<path fill="none" stroke="black" d="M121,-364.981C121,-356.505 121,-346.548 121,-337.254"/>
<polygon fill="black" stroke="black" points="124.5,-337.156 121,-327.156 117.5,-337.156 124.5,-337.156"/>
</g>
<!-- Port Ready -->
<g id="node3" class="node"><title>Port Ready</title>
<path fill="#eecc80" stroke="#eecc80" d="M109.194,-238.904C109.194,-238.904 33.6641,-225.15 33.6641,-225.15 27.7612,-224.075 27.7612,-221.925 33.6641,-220.85 33.6641,-220.85 109.194,-207.096 109.194,-207.096 115.097,-206.022 126.903,-206.022 132.806,-207.096 132.806,-207.096 208.336,-220.85 208.336,-220.85 214.239,-221.925 214.239,-224.075 208.336,-225.15 208.336,-225.15 132.806,-238.904 132.806,-238.904 126.903,-239.978 115.097,-239.978 109.194,-238.904"/>
<path fill="none" stroke="#eecc80" d="M109.194,-242.981C109.194,-242.981 11.2734,-225.15 11.2734,-225.15 5.37046,-224.075 5.37046,-221.925 11.2734,-220.85 11.2734,-220.85 109.194,-203.019 109.194,-203.019 115.097,-201.944 126.903,-201.944 132.806,-203.019 132.806,-203.019 230.727,-220.85 230.727,-220.85 236.63,-221.925 236.63,-224.075 230.727,-225.15 230.727,-225.15 132.806,-242.981 132.806,-242.981 126.903,-244.056 115.097,-244.056 109.194,-242.981"/>
<text text-anchor="middle" x="121" y="-219.3" font-family="Vera Sans YuanTi" font-size="14.00">Port Ready</text>
</g>
<!-- Initialization&#45;&gt;Port Ready -->
<g id="edge2" class="edge"><title>Initialization&#45;&gt;Port Ready:n</title>
<path fill="none" stroke="black" d="M121,-282.974C121,-274.703 121,-264.895 121,-255.278"/>
<polygon fill="black" stroke="black" points="124.5,-255 121,-245 117.5,-255 124.5,-255"/>
</g>
<!-- Launch -->
<g id="node4" class="node"><title>Launch</title>
<path fill="#eecc80" stroke="#eecc80" d="M165.272,-145C165.272,-145 106.728,-145 106.728,-145 100.728,-145 94.728,-139 94.728,-133 94.728,-133 94.728,-121 94.728,-121 94.728,-115 100.728,-109 106.728,-109 106.728,-109 165.272,-109 165.272,-109 171.272,-109 177.272,-115 177.272,-121 177.272,-121 177.272,-133 177.272,-133 177.272,-139 171.272,-145 165.272,-145"/>
<path fill="none" stroke="#eecc80" d="M169.25,-149C169.25,-149 102.75,-149 102.75,-149 96.75,-149 90.75,-143 90.75,-137 90.75,-137 90.75,-117 90.75,-117 90.75,-111 96.75,-105 102.75,-105 102.75,-105 169.25,-105 169.25,-105 175.25,-105 181.25,-111 181.25,-117 181.25,-117 181.25,-137 181.25,-137 181.25,-143 175.25,-149 169.25,-149"/>
<text text-anchor="middle" x="136" y="-123.3" font-family="Vera Sans YuanTi" font-size="14.00">Launch</text>
</g>
<!-- Port Ready&#45;&gt;Launch -->
<g id="edge3" class="edge"><title>Port Ready:s&#45;&gt;Launch</title>
<path fill="none" stroke="black" d="M121,-201C121,-187.013 123.675,-171.822 126.765,-158.938"/>
<polygon fill="black" stroke="black" points="130.177,-159.724 129.29,-149.166 123.399,-157.973 130.177,-159.724"/>
<text text-anchor="middle" x="136" y="-171.3" font-family="Times,serif" font-size="14.00">Yes</text>
</g>
<!-- 退出 -->
<g id="node5" class="node"><title>退出</title>
<path fill="#eecc80" stroke="#eecc80" d="M248.725,-52.2533C248.725,-52.2533 212.538,-61.4405 212.538,-61.4405 209.269,-62.2705 202.731,-62.2705 199.462,-61.4405 199.462,-61.4405 163.275,-52.2533 163.275,-52.2533 160.006,-51.4233 156.744,-47.2205 156.752,-43.8477 156.752,-43.8477 156.767,-37.1021 156.767,-37.1021 156.775,-33.7292 160.156,-30.3564 163.528,-30.3564 163.528,-30.3564 248.472,-30.3564 248.472,-30.3564 251.844,-30.3564 255.225,-33.7292 255.233,-37.1021 255.233,-37.1021 255.248,-43.8477 255.248,-43.8477 255.256,-47.2205 251.994,-51.4233 248.725,-52.2533"/>
<path fill="none" stroke="#eecc80" d="M250.374,-55.9804C250.374,-55.9804 214.852,-64.9989 214.852,-64.9989 210.426,-66.1226 201.574,-66.1226 197.148,-64.9989 197.148,-64.9989 161.626,-55.9804 161.626,-55.9804 157.2,-54.8567 152.784,-49.1665 152.794,-44.6 152.794,-44.6 152.815,-35.467 152.815,-35.467 152.825,-30.9006 157.402,-26.3341 161.969,-26.3341 161.969,-26.3341 250.031,-26.3341 250.031,-26.3341 254.598,-26.3341 259.175,-30.9006 259.185,-35.467 259.185,-35.467 259.206,-44.6 259.206,-44.6 259.216,-49.1665 254.8,-54.8567 250.374,-55.9804"/>
<text text-anchor="middle" x="206" y="-41.3" font-family="Vera Sans YuanTi" font-size="14.00">退出</text>
</g>
<!-- Port Ready&#45;&gt;退出 -->
<g id="edge4" class="edge"><title>Port Ready:e&#45;&gt;退出</title>
<path fill="none" stroke="black" stroke-dasharray="1,5" d="M244,-223C304.507,-223 252.518,-122.9 223.014,-73.2547"/>
<polygon fill="black" stroke="black" points="225.96,-71.363 217.798,-64.6076 219.966,-74.9783 225.96,-71.363"/>
<text text-anchor="middle" x="268.5" y="-123.3" font-family="Times,serif" font-size="14.00">No</text>
</g>
<!-- Launch&#45;&gt;退出 -->
<g id="edge5" class="edge"><title>Launch&#45;&gt;退出</title>
<path fill="none" stroke="black" d="M154.392,-104.981C163.453,-94.6248 174.449,-82.0588 183.958,-71.1911"/>
<polygon fill="black" stroke="black" points="186.619,-73.4643 190.571,-63.6337 181.351,-68.8547 186.619,-73.4643"/>
</g>
</g>
</svg>
