<?xml version="1.0" encoding="UTF-8" standalone="no"?>
<!DOCTYPE svg PUBLIC "-//W3C//DTD SVG 1.1//EN"
 "http://www.w3.org/Graphics/SVG/1.1/DTD/svg11.dtd">
<!-- Generated by graphviz version 2.36.0 (20140111.2315)
 -->
<!-- Title: G Pages: 1 -->
<svg width="346pt" height="581pt"
 viewBox="0.00 0.00 346.00 581.00" xmlns="http://www.w3.org/2000/svg" xmlns:xlink="http://www.w3.org/1999/xlink">
<g id="graph0" class="graph" transform="scale(1 1) rotate(0) translate(4 577)">
<title>G</title>
<text text-anchor="middle" x="169" y="-7.8" font-family="Times,serif" font-size="14.00">flowchart.txt</text>
<!-- 模块上电，确保供电稳定_2 -->
<g id="node1" class="node"><title>模块上电，确保供电稳定_2</title>
<ellipse fill="#eecc80" stroke="#eecc80" cx="158" cy="-551" rx="123.242" ry="18"/>
<ellipse fill="none" stroke="#eecc80" cx="158" cy="-551" rx="127.234" ry="22"/>
<text text-anchor="middle" x="158" y="-547.3" font-family="Vera Sans YuanTi" font-size="14.00">模块上电，确保供电稳定_2</text>
</g>
<!-- 拉低 PWRKEY，2s 后释放置高_3 -->
<g id="node2" class="node"><title>拉低 PWRKEY，2s 后释放置高_3</title>
<path fill="#eecc80" stroke="#eecc80" d="M262.258,-487C262.258,-487 53.7417,-487 53.7417,-487 47.7417,-487 41.7417,-481 41.7417,-475 41.7417,-475 41.7417,-463 41.7417,-463 41.7417,-457 47.7417,-451 53.7417,-451 53.7417,-451 262.258,-451 262.258,-451 268.258,-451 274.258,-457 274.258,-463 274.258,-463 274.258,-475 274.258,-475 274.258,-481 268.258,-487 262.258,-487"/>
<path fill="none" stroke="#eecc80" d="M266.25,-491C266.25,-491 49.75,-491 49.75,-491 43.75,-491 37.75,-485 37.75,-479 37.75,-479 37.75,-459 37.75,-459 37.75,-453 43.75,-447 49.75,-447 49.75,-447 266.25,-447 266.25,-447 272.25,-447 278.25,-453 278.25,-459 278.25,-459 278.25,-479 278.25,-479 278.25,-485 272.25,-491 266.25,-491"/>
<text text-anchor="middle" x="158" y="-465.3" font-family="Vera Sans YuanTi" font-size="14.00">拉低 PWRKEY，2s 后释放置高_3</text>
</g>
<!-- 模块上电，确保供电稳定_2&#45;&gt;拉低 PWRKEY，2s 后释放置高_3 -->
<g id="edge1" class="edge"><title>模块上电，确保供电稳定_2&#45;&gt;拉低 PWRKEY，2s 后释放置高_3</title>
<path fill="none" stroke="black" d="M158,-528.981C158,-520.505 158,-510.548 158,-501.254"/>
<polygon fill="black" stroke="black" points="161.5,-501.156 158,-491.156 154.5,-501.156 161.5,-501.156"/>
</g>
<!-- AT 通讯是否正常_4 -->
<g id="node3" class="node"><title>AT 通讯是否正常_4</title>
<path fill="#eecc80" stroke="#eecc80" d="M146.115,-403.376C146.115,-403.376 40.4158,-388.655 40.4158,-388.655 34.4732,-387.828 34.4732,-386.172 40.4158,-385.345 40.4158,-385.345 146.115,-370.624 146.115,-370.624 152.057,-369.796 163.943,-369.796 169.885,-370.624 169.885,-370.624 275.584,-385.345 275.584,-385.345 281.527,-386.172 281.527,-387.828 275.584,-388.655 275.584,-388.655 169.885,-403.376 169.885,-403.376 163.943,-404.204 152.057,-404.204 146.115,-403.376"/>
<path fill="none" stroke="#eecc80" d="M146.115,-407.422C146.115,-407.422 11.3686,-388.655 11.3686,-388.655 5.426,-387.828 5.426,-386.172 11.3686,-385.345 11.3686,-385.345 146.115,-366.578 146.115,-366.578 152.057,-365.751 163.943,-365.751 169.885,-366.578 169.885,-366.578 304.631,-385.345 304.631,-385.345 310.574,-386.172 310.574,-387.828 304.631,-388.655 304.631,-388.655 169.885,-407.422 169.885,-407.422 163.943,-408.249 152.057,-408.249 146.115,-407.422"/>
<text text-anchor="middle" x="158" y="-383.3" font-family="Vera Sans YuanTi" font-size="14.00">AT 通讯是否正常_4</text>
</g>
<!-- 拉低 PWRKEY，2s 后释放置高_3&#45;&gt;AT 通讯是否正常_4 -->
<g id="edge2" class="edge"><title>拉低 PWRKEY，2s 后释放置高_3&#45;&gt;AT 通讯是否正常_4:n</title>
<path fill="none" stroke="black" d="M158,-446.974C158,-438.703 158,-428.895 158,-419.278"/>
<polygon fill="black" stroke="black" points="161.5,-419 158,-409 154.5,-419 161.5,-419"/>
</g>
<!-- 重启流程_4 -->
<g id="node4" class="node"><title>重启流程_4</title>
<path fill="#eecc80" stroke="#eecc80" d="M212.541,-309C212.541,-309 147.459,-309 147.459,-309 141.459,-309 135.459,-303 135.459,-297 135.459,-297 135.459,-285 135.459,-285 135.459,-279 141.459,-273 147.459,-273 147.459,-273 212.541,-273 212.541,-273 218.541,-273 224.541,-279 224.541,-285 224.541,-285 224.541,-297 224.541,-297 224.541,-303 218.541,-309 212.541,-309"/>
<path fill="none" stroke="#eecc80" d="M216.5,-313C216.5,-313 143.5,-313 143.5,-313 137.5,-313 131.5,-307 131.5,-301 131.5,-301 131.5,-281 131.5,-281 131.5,-275 137.5,-269 143.5,-269 143.5,-269 216.5,-269 216.5,-269 222.5,-269 228.5,-275 228.5,-281 228.5,-281 228.5,-301 228.5,-301 228.5,-307 222.5,-313 216.5,-313"/>
<text text-anchor="middle" x="180" y="-287.3" font-family="Vera Sans YuanTi" font-size="14.00">重启流程_4</text>
</g>
<!-- AT 通讯是否正常_4&#45;&gt;重启流程_4 -->
<g id="edge3" class="edge"><title>AT 通讯是否正常_4:s&#45;&gt;重启流程_4</title>
<path fill="none" stroke="black" d="M158,-365C158,-350.795 161.866,-335.672 166.356,-322.896"/>
<polygon fill="black" stroke="black" points="169.754,-323.807 170.03,-313.216 163.21,-321.324 169.754,-323.807"/>
<text text-anchor="middle" x="175" y="-335.3" font-family="Times,serif" font-size="14.00">Yes</text>
</g>
<!-- xxx_4 -->
<g id="node5" class="node"><title>xxx_4</title>
<path fill="#eecc80" stroke="#eecc80" d="M301,-309C301,-309 267,-309 267,-309 261,-309 255,-303 255,-297 255,-297 255,-285 255,-285 255,-279 261,-273 267,-273 267,-273 301,-273 301,-273 307,-273 313,-279 313,-285 313,-285 313,-297 313,-297 313,-303 307,-309 301,-309"/>
<path fill="none" stroke="#eecc80" d="M305,-313C305,-313 263,-313 263,-313 257,-313 251,-307 251,-301 251,-301 251,-281 251,-281 251,-275 257,-269 263,-269 263,-269 305,-269 305,-269 311,-269 317,-275 317,-281 317,-281 317,-301 317,-301 317,-307 311,-313 305,-313"/>
<text text-anchor="middle" x="284" y="-287.3" font-family="Vera Sans YuanTi" font-size="14.00">xxx_4</text>
</g>
<!-- AT 通讯是否正常_4&#45;&gt;xxx_4 -->
<g id="edge4" class="edge"><title>AT 通讯是否正常_4:e&#45;&gt;xxx_4</title>
<path fill="none" stroke="black" stroke-dasharray="1,5" d="M318,-387C346.258,-387 325.404,-349.279 306.111,-321.376"/>
<polygon fill="black" stroke="black" points="308.87,-319.215 300.23,-313.084 303.16,-323.265 308.87,-319.215"/>
<text text-anchor="middle" x="329.5" y="-335.3" font-family="Times,serif" font-size="14.00">No</text>
</g>
<!-- 开机流程 结束_5 -->
<g id="node6" class="node"><title>开机流程 结束_5</title>
<path fill="#eecc80" stroke="#eecc80" d="M290.265,-227C290.265,-227 191.735,-227 191.735,-227 185.735,-227 179.735,-221 179.735,-215 179.735,-215 179.735,-203 179.735,-203 179.735,-197 185.735,-191 191.735,-191 191.735,-191 290.265,-191 290.265,-191 296.265,-191 302.265,-197 302.265,-203 302.265,-203 302.265,-215 302.265,-215 302.265,-221 296.265,-227 290.265,-227"/>
<path fill="none" stroke="#eecc80" d="M294.25,-231C294.25,-231 187.75,-231 187.75,-231 181.75,-231 175.75,-225 175.75,-219 175.75,-219 175.75,-199 175.75,-199 175.75,-193 181.75,-187 187.75,-187 187.75,-187 294.25,-187 294.25,-187 300.25,-187 306.25,-193 306.25,-199 306.25,-199 306.25,-219 306.25,-219 306.25,-225 300.25,-231 294.25,-231"/>
<text text-anchor="middle" x="241" y="-205.3" font-family="Vera Sans YuanTi" font-size="14.00">开机流程 结束_5</text>
</g>
<!-- 重启流程_4&#45;&gt;开机流程 结束_5 -->
<g id="edge5" class="edge"><title>重启流程_4&#45;&gt;开机流程 结束_5</title>
<path fill="none" stroke="black" d="M196.027,-268.981C202.977,-259.867 211.231,-249.041 218.76,-239.168"/>
<polygon fill="black" stroke="black" points="221.588,-241.231 224.868,-231.156 216.022,-236.986 221.588,-241.231"/>
</g>
<!-- xxx_4&#45;&gt;开机流程 结束_5 -->
<g id="edge6" class="edge"><title>xxx_4&#45;&gt;开机流程 结束_5</title>
<path fill="none" stroke="black" d="M272.702,-268.981C267.95,-260.14 262.333,-249.689 257.157,-240.059"/>
<polygon fill="black" stroke="black" points="260.189,-238.308 252.372,-231.156 254.023,-241.622 260.189,-238.308"/>
</g>
<!-- 开机流程 结束_5&#45;&gt;开机流程 结束_5 -->
<g id="edge7" class="edge"><title>开机流程 结束_5&#45;&gt;开机流程 结束_5</title>
<path fill="none" stroke="black" d="M306.413,-215.907C316.854,-214.896 324,-212.594 324,-209 324,-206.754 321.208,-205.012 316.566,-203.775"/>
<polygon fill="black" stroke="black" points="316.851,-200.275 306.413,-202.093 315.707,-207.181 316.851,-200.275"/>
</g>
<!-- tttt_6 -->
<g id="node7" class="node"><title>tttt_6</title>
<path fill="#eecc80" stroke="#eecc80" d="M257.281,-145C257.281,-145 224.719,-145 224.719,-145 218.719,-145 212.719,-139 212.719,-133 212.719,-133 212.719,-121 212.719,-121 212.719,-115 218.719,-109 224.719,-109 224.719,-109 257.281,-109 257.281,-109 263.281,-109 269.281,-115 269.281,-121 269.281,-121 269.281,-133 269.281,-133 269.281,-139 263.281,-145 257.281,-145"/>
<path fill="none" stroke="#eecc80" d="M261.25,-149C261.25,-149 220.75,-149 220.75,-149 214.75,-149 208.75,-143 208.75,-137 208.75,-137 208.75,-117 208.75,-117 208.75,-111 214.75,-105 220.75,-105 220.75,-105 261.25,-105 261.25,-105 267.25,-105 273.25,-111 273.25,-117 273.25,-117 273.25,-137 273.25,-137 273.25,-143 267.25,-149 261.25,-149"/>
<text text-anchor="middle" x="241" y="-123.3" font-family="Vera Sans YuanTi" font-size="14.00">tttt_6</text>
</g>
<!-- 开机流程 结束_5&#45;&gt;tttt_6 -->
<g id="edge8" class="edge"><title>开机流程 结束_5&#45;&gt;tttt_6</title>
<path fill="none" stroke="black" d="M241,-186.981C241,-178.505 241,-168.548 241,-159.254"/>
<polygon fill="black" stroke="black" points="244.5,-159.156 241,-149.156 237.5,-159.156 244.5,-159.156"/>
</g>
<!-- 退出_1 -->
<g id="node8" class="node"><title>退出_1</title>
<path fill="#eecc80" stroke="#eecc80" d="M283.725,-52.2533C283.725,-52.2533 247.538,-61.4405 247.538,-61.4405 244.269,-62.2705 237.731,-62.2705 234.462,-61.4405 234.462,-61.4405 198.275,-52.2533 198.275,-52.2533 195.006,-51.4233 191.744,-47.2205 191.752,-43.8477 191.752,-43.8477 191.767,-37.1021 191.767,-37.1021 191.775,-33.7292 195.156,-30.3564 198.528,-30.3564 198.528,-30.3564 283.472,-30.3564 283.472,-30.3564 286.844,-30.3564 290.225,-33.7292 290.233,-37.1021 290.233,-37.1021 290.248,-43.8477 290.248,-43.8477 290.256,-47.2205 286.994,-51.4233 283.725,-52.2533"/>
<path fill="none" stroke="#eecc80" d="M285.374,-55.9804C285.374,-55.9804 249.852,-64.9989 249.852,-64.9989 245.426,-66.1226 236.574,-66.1226 232.148,-64.9989 232.148,-64.9989 196.626,-55.9804 196.626,-55.9804 192.2,-54.8567 187.784,-49.1665 187.794,-44.6 187.794,-44.6 187.815,-35.467 187.815,-35.467 187.825,-30.9006 192.402,-26.3341 196.969,-26.3341 196.969,-26.3341 285.031,-26.3341 285.031,-26.3341 289.598,-26.3341 294.175,-30.9006 294.185,-35.467 294.185,-35.467 294.206,-44.6 294.206,-44.6 294.216,-49.1665 289.8,-54.8567 285.374,-55.9804"/>
<text text-anchor="middle" x="241" y="-41.3" font-family="Vera Sans YuanTi" font-size="14.00">退出_1</text>
</g>
<!-- tttt_6&#45;&gt;退出_1 -->
<g id="edge9" class="edge"><title>tttt_6&#45;&gt;退出_1</title>
<path fill="none" stroke="black" d="M241,-104.981C241,-96.5048 241,-86.5483 241,-77.2541"/>
<polygon fill="black" stroke="black" points="244.5,-77.1564 241,-67.1564 237.5,-77.1565 244.5,-77.1564"/>
</g>
</g>
</svg>
